<svg width="650" height="520" xmlns="http://www.w3.org/2000/svg" xmlns:xlink="http://www.w3.org/1999/xlink" overflow="hidden"><defs><clipPath id="clip0"><rect x="2680" y="1375" width="650" height="520"/></clipPath></defs><g clip-path="url(#clip0)" transform="translate(-2680 -1375)"><path d="M2968 1801C2968 1777.25 2987.25 1758 3011 1758 3034.75 1758 3054 1777.25 3054 1801 3054 1824.75 3034.75 1844 3011 1844 2987.25 1844 2968 1824.75 2968 1801Z" fill="#000000" fill-rule="evenodd" fill-opacity="0.701961"/><path d="M2880 1704.03C2910.42 1663.01 2959.02 1639.49 3010.09 1641.08 3061.15 1642.67 3108.19 1669.16 3136 1712" stroke="#000000" stroke-width="64.1667" stroke-linecap="round" stroke-linejoin="round" stroke-miterlimit="10" stroke-opacity="0.701961" fill="none" fill-rule="evenodd"/><path d="M2755 1611.06C2815.85 1529.01 2913.05 1481.97 3015.17 1485.15 3117.29 1488.33 3211.38 1541.33 3267 1627" stroke="#000000" stroke-width="64.1667" stroke-linecap="round" stroke-linejoin="round" stroke-miterlimit="10" stroke-opacity="0.701961" fill="none" fill-rule="evenodd"/><path d="M0 0 519.685 389.764" stroke="#000000" stroke-width="64.1667" stroke-linecap="round" stroke-linejoin="round" stroke-miterlimit="10" fill="none" fill-rule="evenodd" transform="matrix(-1 0 0 1 3270.69 1444)"/></g></svg>