<svg width="650" height="520" xmlns="http://www.w3.org/2000/svg" xmlns:xlink="http://www.w3.org/1999/xlink" overflow="hidden"><defs><clipPath id="clip0"><rect x="1807" y="1375" width="650" height="520"/></clipPath></defs><g clip-path="url(#clip0)" transform="translate(-1807 -1375)"><path d="M2090 1788.5C2090 1765.03 2109.03 1746 2132.5 1746 2155.97 1746 2175 1765.03 2175 1788.5 2175 1811.97 2155.97 1831 2132.5 1831 2109.03 1831 2090 1811.97 2090 1788.5Z" fill-rule="evenodd"/><path d="M2005 1692.03C2035.42 1651.01 2084.02 1627.49 2135.09 1629.08 2186.15 1630.67 2233.19 1657.16 2261 1700" stroke="#000000" stroke-width="64.1667" stroke-linecap="round" stroke-linejoin="round" stroke-miterlimit="10" fill="none" fill-rule="evenodd"/><path d="M1879 1599.06C1939.85 1517.01 2037.05 1469.97 2139.17 1473.15 2241.29 1476.33 2335.38 1529.33 2391 1615" stroke="#000000" stroke-width="64.1667" stroke-linecap="round" stroke-linejoin="round" stroke-miterlimit="10" fill="none" fill-rule="evenodd"/></g></svg>