<svg width="650" height="649" xmlns="http://www.w3.org/2000/svg" xmlns:xlink="http://www.w3.org/1999/xlink" overflow="hidden"><defs><clipPath id="clip0"><rect x="2169" y="85" width="650" height="649"/></clipPath></defs><g clip-path="url(#clip0)" transform="translate(-2169 -85)"><path d="M2491 701C2652.27 701 2783 570.043 2783 408.5 2783 246.956 2652.27 116 2491 116 2329.73 116 2199 246.956 2199 408.5 2199 570.043 2329.73 701 2491 701ZM2445.38 499.906 2472.75 499.906 2472.75 426.781 2445.38 426.781C2430.2 426.781 2418 414.556 2418 399.359 2418 384.163 2430.2 371.937 2445.38 371.937L2500.13 371.937C2515.3 371.937 2527.5 384.163 2527.5 399.359L2527.5 499.906 2536.63 499.906C2551.8 499.906 2564 512.132 2564 527.328 2564 542.524 2551.8 554.75 2536.63 554.75L2445.38 554.75C2430.2 554.75 2418 542.524 2418 527.328 2418 512.132 2430.2 499.906 2445.38 499.906ZM2491 262.25C2511.16 262.25 2527.5 278.619 2527.5 298.812 2527.5 319.005 2511.16 335.375 2491 335.375 2470.84 335.375 2454.5 319.005 2454.5 298.812 2454.5 278.619 2470.84 262.25 2491 262.25Z" fill-rule="evenodd"/></g></svg>