<svg width="650" height="650" xmlns="http://www.w3.org/2000/svg" xmlns:xlink="http://www.w3.org/1999/xlink" overflow="hidden"><defs><clipPath id="clip0"><rect x="135" y="1111" width="650" height="650"/></clipPath></defs><g clip-path="url(#clip0)" transform="translate(-135 -1111)"><path d="M549.273 1598C549.529 1563.23 582.376 1531.82 604.483 1501.47L604.483 1501.47C610.318 1493.52 616.153 1485.57 621.764 1477.51 643.983 1445.6 657 1406.96 657 1365.2 657 1256.24 568.574 1168 459.5 1168 350.426 1168 262 1256.24 262 1365.08 262 1406.85 275.017 1445.6 297.236 1477.4 302.847 1485.46 308.682 1493.41 314.517 1501.36L314.517 1501.36C336.736 1531.71 369.584 1559.42 369.727 1597.89L549.273 1597.89 549.273 1598Z" fill-rule="evenodd"/><path d="M459.494 1740.96C508.943 1740.96 548.994 1700.72 548.994 1651.03L548.994 1597.07 369.994 1596.96 369.994 1651.03C369.994 1700.72 410.045 1740.96 459.494 1740.96Z" fill="#000000" fill-rule="evenodd" fill-opacity="0.701961"/></g></svg>