<svg width="650" height="650" xmlns="http://www.w3.org/2000/svg" xmlns:xlink="http://www.w3.org/1999/xlink" overflow="hidden"><defs><clipPath id="clip0"><rect x="1867" y="126" width="650" height="650"/></clipPath></defs><g clip-path="url(#clip0)" transform="translate(-1867 -126)"><path d="M2192 342.912C2148.94 342.912 2114.03 377.813 2114.03 420.865 2114.03 463.918 2148.94 498.819 2192 498.819 2235.06 498.819 2269.97 463.918 2269.97 420.865 2269.97 377.813 2235.06 342.912 2192 342.912ZM2192 208C2312.91 208 2411 306.077 2411 426.963 2411 526.637 2297.5 682.532 2251.14 733.967 2204.78 785.401 2170.32 780.729 2132.86 735.571 2091.53 685.747 1973 526.637 1973 426.963 1973 306.077 2071.09 208 2192 208Z" fill-rule="evenodd"/></g></svg>