<svg width="780" height="780" xmlns="http://www.w3.org/2000/svg" xmlns:xlink="http://www.w3.org/1999/xlink" overflow="hidden"><defs><clipPath id="clip0"><rect x="259" y="1419" width="780" height="780"/></clipPath></defs><g clip-path="url(#clip0)" transform="translate(-259 -1419)"><path d="M985.951 1917.08C951.287 2026 865.824 2111.2 756.898 2145.41" stroke="#000000" stroke-width="55" stroke-linecap="round" stroke-linejoin="round" stroke-miterlimit="10" stroke-opacity="0.6" fill="none" fill-rule="evenodd"/><path d="M1002.68 1809.5 971.5 1809.5" stroke="#000000" stroke-width="68.75" stroke-linecap="round" stroke-linejoin="round" stroke-miterlimit="10" fill="none" fill-rule="evenodd"/><path d="M542.92 2143.95C433.996 2109.29 348.802 2023.82 314.588 1914.9" stroke="#000000" stroke-width="55" stroke-linecap="round" stroke-linejoin="round" stroke-miterlimit="10" stroke-opacity="0.6" fill="none" fill-rule="evenodd"/><path d="M650.5 2160.68 650.5 2129.5" stroke="#000000" stroke-width="68.75" stroke-linecap="round" stroke-linejoin="round" stroke-miterlimit="10" fill="none" fill-rule="evenodd"/><path d="M757.218 1478.12C866.127 1512.87 951.285 1598.49 985.454 1707.59" stroke="#000000" stroke-width="55" stroke-linecap="round" stroke-linejoin="round" stroke-miterlimit="10" stroke-opacity="0.6" fill="none" fill-rule="evenodd"/><path d="M649.5 1461.5 649.5 1492.68" stroke="#000000" stroke-width="68.75" stroke-linecap="round" stroke-linejoin="round" stroke-miterlimit="10" fill="none" fill-rule="evenodd"/><path d="M315.116 1704.78C349.874 1595.87 435.494 1510.71 544.589 1476.54" stroke="#000000" stroke-width="55" stroke-linecap="round" stroke-linejoin="round" stroke-miterlimit="10" stroke-opacity="0.6" fill="none" fill-rule="evenodd"/><path d="M298.5 1812.5 329.681 1812.5" stroke="#000000" stroke-width="68.75" stroke-linecap="round" stroke-linejoin="round" stroke-miterlimit="10" fill="none" fill-rule="evenodd"/><path d="M706.094 1709.69C711.169 1706.76 715.75 1684 769.919 1684 824.087 1684 868 1727.88 868 1782 868 1836.12 824.087 1880 769.919 1880 697.649 1879.35 644.269 1880.14 572 1879.49" fill="#000000" fill-rule="evenodd" fill-opacity="0.901961"/><path d="M435 1742C435 1665.78 496.561 1604 572.5 1604 648.439 1604 710 1665.78 710 1742 710 1818.22 648.439 1880 572.5 1880 496.561 1880 435 1818.22 435 1742Z" fill-rule="evenodd"/><path d="M0 0 51.892 51.0183" stroke="#000000" stroke-width="45.8333" stroke-linecap="round" stroke-linejoin="round" stroke-miterlimit="10" stroke-opacity="0.501961" fill="none" fill-rule="evenodd" transform="matrix(-1 0 0 1 543.892 1917)"/><path d="M0 0 64.9606 64.9617" stroke="#000000" stroke-width="45.8333" stroke-linecap="round" stroke-linejoin="round" stroke-miterlimit="10" stroke-opacity="0.701961" fill="none" fill-rule="evenodd" transform="matrix(-1 0 0 1 638.961 1917)"/><path d="M0 0 51.1753 51.1742" stroke="#000000" stroke-width="45.8333" stroke-linecap="round" stroke-linejoin="round" stroke-miterlimit="10" stroke-opacity="0.501961" fill="none" fill-rule="evenodd" transform="matrix(-1 0 0 1 683.175 1971)"/><path d="M0 0 52.4265 52.7275" stroke="#000000" stroke-width="45.8333" stroke-linecap="round" stroke-linejoin="round" stroke-miterlimit="10" stroke-opacity="0.501961" fill="none" fill-rule="evenodd" transform="matrix(-1 0 0 1 797.426 1944)"/><path d="M0 0 7.80538 7.80538" stroke="#000000" stroke-width="45.8333" stroke-linecap="round" stroke-linejoin="round" stroke-miterlimit="10" stroke-opacity="0.701961" fill="none" fill-rule="evenodd" transform="matrix(-1 0 0 1 736.805 1916)"/></g></svg>