<svg width="780" height="779" xmlns="http://www.w3.org/2000/svg" xmlns:xlink="http://www.w3.org/1999/xlink" overflow="hidden"><defs><clipPath id="clip0"><rect x="1471" y="1113" width="780" height="779"/></clipPath></defs><g clip-path="url(#clip0)" transform="translate(-1471 -1113)"><path d="M1855 1358.5C1855 1297.47 1904.47 1248 1965.5 1248 2026.53 1248 2076 1297.47 2076 1358.5 2076 1419.53 2026.53 1469 1965.5 1469 1904.47 1469 1855 1419.53 1855 1358.5Z" fill="#000000" fill-rule="evenodd" fill-opacity="0.501961"/><path d="M1965.5 1153.5 1965.5 1190.92" stroke="#000000" stroke-width="55" stroke-linecap="round" stroke-linejoin="round" stroke-miterlimit="10" stroke-opacity="0.501961" fill="none" fill-rule="evenodd"/><path d="M2170.92 1358.5 2133.5 1358.5" stroke="#000000" stroke-width="55" stroke-linecap="round" stroke-linejoin="round" stroke-miterlimit="10" stroke-opacity="0.501961" fill="none" fill-rule="evenodd"/><path d="M2109.78 1210.86 2083.32 1237.32" stroke="#000000" stroke-width="55" stroke-linecap="round" stroke-linejoin="round" stroke-miterlimit="10" stroke-opacity="0.501961" fill="none" fill-rule="evenodd"/><path d="M1822.02 1217.4 1848.47 1243.86" stroke="#000000" stroke-width="55" stroke-linecap="round" stroke-linejoin="round" stroke-miterlimit="10" stroke-opacity="0.501961" fill="none" fill-rule="evenodd"/><path d="M1949.37 1464.89C1957.45 1460.22 1964.74 1424 2050.93 1424 2137.13 1424 2207 1493.84 2207 1580 2207 1666.16 2137.13 1736 2050.93 1736 1935.94 1734.97 1851 1736.22 1736 1735.19" fill="#000000" fill-rule="evenodd" fill-opacity="0.901961"/><path d="M1518 1517C1518 1396.6 1615.83 1299 1736.5 1299 1857.17 1299 1955 1396.6 1955 1517 1955 1637.4 1857.17 1735 1736.5 1735 1615.83 1735 1518 1637.4 1518 1517Z" fill="#000000" fill-rule="evenodd" fill-opacity="0.6"/><path d="M1631.18 1419.61C1621.14 1418.22 1610.78 1422.8 1605.26 1432.03 1597.9 1444.35 1601.95 1460.28 1614.29 1467.61L1724.4 1533.1 1724.96 1533.68C1733.27 1539.46 1744.58 1540.09 1753.7 1534.36L1819.75 1492.9C1831.92 1485.27 1835.57 1469.25 1827.92 1457.12 1820.27 1444.99 1804.21 1441.34 1792.05 1448.97L1739.75 1481.8 1640.92 1423.03C1637.84 1421.19 1634.53 1420.07 1631.18 1419.61ZM1737.5 1300C1858.17 1300 1956 1397.6 1956 1518 1956 1638.4 1858.17 1736 1737.5 1736 1616.83 1736 1519 1638.4 1519 1518 1519 1397.6 1616.83 1300 1737.5 1300Z" fill-rule="evenodd"/><path d="M0 0 68.5598 67.4053" stroke="#000000" stroke-width="55" stroke-linecap="round" stroke-linejoin="round" stroke-miterlimit="10" stroke-opacity="0.501961" fill="none" fill-rule="evenodd" transform="matrix(-1 0 0 1 1734.06 1741.5)"/><path d="M0 0 116.206 116.072" stroke="#000000" stroke-width="55" stroke-linecap="round" stroke-linejoin="round" stroke-miterlimit="10" stroke-opacity="0.701961" fill="none" fill-rule="evenodd" transform="matrix(-1 0 0 1 1883.71 1715.5)"/><path d="M0 0 38.9764 38.9764" stroke="#000000" stroke-width="55" stroke-linecap="round" stroke-linejoin="round" stroke-miterlimit="10" stroke-opacity="0.501961" fill="none" fill-rule="evenodd" transform="matrix(-1 0 0 1 1921.48 1811.5)"/><path d="M0 0 51.9685 51.9685" stroke="#000000" stroke-width="55" stroke-linecap="round" stroke-linejoin="round" stroke-miterlimit="10" stroke-opacity="0.501961" fill="none" fill-rule="evenodd" transform="matrix(-1 0 0 1 2057.47 1787.5)"/><path d="M0 0 10.3125 10.3125" stroke="#000000" stroke-width="55" stroke-linecap="round" stroke-linejoin="round" stroke-miterlimit="10" stroke-opacity="0.701961" fill="none" fill-rule="evenodd" transform="matrix(-1 0 0 1 1974.81 1751.5)"/></g></svg>