<svg width="779" height="780" xmlns="http://www.w3.org/2000/svg" xmlns:xlink="http://www.w3.org/1999/xlink" overflow="hidden"><defs><clipPath id="clip0"><rect x="249" y="15" width="779" height="780"/></clipPath></defs><g clip-path="url(#clip0)" transform="translate(-249 -15)"><path d="M633 302.5C633 241.473 682.472 192 743.5 192 804.527 192 854 241.473 854 302.5 854 363.527 804.527 413 743.5 413 682.472 413 633 363.527 633 302.5Z" fill="#000000" fill-rule="evenodd" fill-opacity="0.501961"/><path d="M743.5 97.5001 743.5 134.917" stroke="#000000" stroke-width="55" stroke-linecap="round" stroke-linejoin="round" stroke-miterlimit="10" stroke-opacity="0.501961" fill="none" fill-rule="evenodd"/><path d="M948.917 302.5 911.5 302.5" stroke="#000000" stroke-width="55" stroke-linecap="round" stroke-linejoin="round" stroke-miterlimit="10" stroke-opacity="0.501961" fill="none" fill-rule="evenodd"/><path d="M887.492 154.555 861.034 181.013" stroke="#000000" stroke-width="55" stroke-linecap="round" stroke-linejoin="round" stroke-miterlimit="10" stroke-opacity="0.501961" fill="none" fill-rule="evenodd"/><path d="M599.725 161.092 626.183 187.55" stroke="#000000" stroke-width="55" stroke-linecap="round" stroke-linejoin="round" stroke-miterlimit="10" stroke-opacity="0.501961" fill="none" fill-rule="evenodd"/><path d="M726.919 408.889C734.978 404.224 742.252 368 828.263 368 914.274 368 984 437.844 984 524 984 610.156 914.274 680 828.263 680 713.511 678.966 628.752 680.224 514 679.19" fill="#000000" fill-rule="evenodd" fill-opacity="0.901961"/><path d="M297 461.5C297 340.826 394.826 243 515.5 243 636.174 243 734 340.826 734 461.5 734 582.174 636.174 680 515.5 680 394.826 680 297 582.174 297 461.5Z" fill-rule="evenodd"/></g></svg>