<svg width="779" height="779" xmlns="http://www.w3.org/2000/svg" xmlns:xlink="http://www.w3.org/1999/xlink" overflow="hidden"><defs><clipPath id="clip0"><rect x="2551" y="582" width="779" height="779"/></clipPath></defs><g clip-path="url(#clip0)" transform="translate(-2551 -582)"><path d="M0 0 68.5598 67.4053" stroke="#000000" stroke-width="55" stroke-linecap="round" stroke-linejoin="round" stroke-miterlimit="10" stroke-opacity="0.501961" fill="none" fill-rule="evenodd" transform="matrix(-1 0 0 1 2817.06 1208.5)"/><path d="M0 0 116.206 116.072" stroke="#000000" stroke-width="55" stroke-linecap="round" stroke-linejoin="round" stroke-miterlimit="10" stroke-opacity="0.701961" fill="none" fill-rule="evenodd" transform="matrix(-1 0 0 1 2966.71 1183.5)"/><path d="M0 0 38.9764 38.9764" stroke="#000000" stroke-width="55" stroke-linecap="round" stroke-linejoin="round" stroke-miterlimit="10" stroke-opacity="0.501961" fill="none" fill-rule="evenodd" transform="matrix(-1 0 0 1 3004.48 1279.5)"/><path d="M0 0 51.9685 51.9685" stroke="#000000" stroke-width="55" stroke-linecap="round" stroke-linejoin="round" stroke-miterlimit="10" stroke-opacity="0.501961" fill="none" fill-rule="evenodd" transform="matrix(-1 0 0 1 3140.47 1255.5)"/><path d="M0 0 10.3125 10.3125" stroke="#000000" stroke-width="55" stroke-linecap="round" stroke-linejoin="round" stroke-miterlimit="10" stroke-opacity="0.701961" fill="none" fill-rule="evenodd" transform="matrix(-1 0 0 1 3058.81 1219.5)"/><path d="M2934 823.5C2934 762.472 2983.47 713 3044.5 713 3105.53 713 3155 762.472 3155 823.5 3155 884.527 3105.53 934 3044.5 934 2983.47 934 2934 884.527 2934 823.5Z" fill="#000000" fill-rule="evenodd" fill-opacity="0.501961"/><path d="M3045.5 618.5 3045.5 655.917" stroke="#000000" stroke-width="55" stroke-linecap="round" stroke-linejoin="round" stroke-miterlimit="10" stroke-opacity="0.501961" fill="none" fill-rule="evenodd"/><path d="M3249.92 823.5 3212.5 823.5" stroke="#000000" stroke-width="55" stroke-linecap="round" stroke-linejoin="round" stroke-miterlimit="10" stroke-opacity="0.501961" fill="none" fill-rule="evenodd"/><path d="M3189.26 675.29 3162.8 701.748" stroke="#000000" stroke-width="55" stroke-linecap="round" stroke-linejoin="round" stroke-miterlimit="10" stroke-opacity="0.501961" fill="none" fill-rule="evenodd"/><path d="M2901.49 681.828 2927.95 708.285" stroke="#000000" stroke-width="55" stroke-linecap="round" stroke-linejoin="round" stroke-miterlimit="10" stroke-opacity="0.501961" fill="none" fill-rule="evenodd"/><path d="M3028.92 929.888C3036.98 925.223 3044.25 889 3130.26 889 3216.27 889 3286 958.844 3286 1045 3286 1131.16 3216.27 1201 3130.26 1201 3015.51 1199.97 2930.75 1201.22 2816 1200.19" fill="#000000" fill-rule="evenodd" fill-opacity="0.901961"/><path d="M2599 982.5C2599 861.826 2696.6 764 2817 764 2937.4 764 3035 861.826 3035 982.5 3035 1103.17 2937.4 1201 2817 1201 2696.6 1201 2599 1103.17 2599 982.5Z" fill="#000000" fill-rule="evenodd" fill-opacity="0.6"/><path d="M2818.97 825.243C2804.64 825.243 2793.02 836.888 2793.02 851.255L2793.02 979.446 2792.8 980.22C2792.08 990.331 2797.33 1000.37 2806.9 1005.26L2876.25 1040.73C2889.02 1047.26 2904.65 1042.18 2911.17 1029.38 2917.68 1016.58 2912.61 1000.92 2899.84 994.388L2844.93 966.304 2844.93 851.255C2844.93 836.888 2833.31 825.243 2818.97 825.243ZM2817 764C2937.4 764 3035 861.826 3035 982.5 3035 1103.17 2937.4 1201 2817 1201 2696.6 1201 2599 1103.17 2599 982.5 2599 861.826 2696.6 764 2817 764Z" fill-rule="evenodd"/></g></svg>