<svg width="650" height="649" xmlns="http://www.w3.org/2000/svg" xmlns:xlink="http://www.w3.org/1999/xlink" overflow="hidden"><defs><clipPath id="clip0"><rect x="1355" y="215" width="650" height="649"/></clipPath></defs><g clip-path="url(#clip0)" transform="translate(-1355 -215)"><path d="M1376 541C1376 372.553 1512.78 236 1681.5 236 1850.22 236 1987 372.553 1987 541 1987 709.447 1850.22 846 1681.5 846 1512.78 846 1376 709.447 1376 541Z" fill="#000000" fill-rule="evenodd" fill-opacity="0.501961"/><path d="M1791.82 367.882C1798.17 359.197 1810.37 357.31 1819.05 363.668L1819.05 363.668C1827.74 370.025 1829.62 382.219 1823.27 390.904L1700.48 558.64C1694.12 567.325 1681.93 569.212 1673.25 562.854L1673.25 562.854C1664.56 556.497 1662.67 544.303 1669.03 535.618Z" fill="#000000" fill-rule="evenodd" fill-opacity="0.85098"/><path d="M1803.61 627.411C1813.77 637.551 1813.78 654.003 1803.64 664.158L1803.64 664.158C1793.5 674.313 1777.05 674.326 1766.89 664.186L1665.76 563.205C1655.61 553.065 1655.59 536.613 1665.73 526.458L1665.73 526.458C1675.87 516.303 1692.33 516.291 1702.48 526.431Z" fill-rule="evenodd"/><path d="M1439.54 504.383C1432.54 502.847 1428.1 495.92 1429.63 488.911L1429.63 488.911C1431.17 481.902 1438.1 477.465 1445.11 479.001L1684.34 531.424C1691.35 532.96 1695.79 539.888 1694.25 546.897L1694.25 546.896C1692.72 553.905 1685.79 558.342 1678.78 556.806Z" fill="#000000" fill-rule="evenodd" fill-opacity="0.701961"/></g></svg>