<svg width="649" height="649" xmlns="http://www.w3.org/2000/svg" xmlns:xlink="http://www.w3.org/1999/xlink" overflow="hidden"><defs><clipPath id="clip0"><rect x="264" y="239" width="649" height="649"/></clipPath></defs><g clip-path="url(#clip0)" transform="translate(-264 -239)"><path d="M588.5 862C753.357 862 887 728.357 887 563.5 887 398.643 753.357 265 588.5 265 423.643 265 290 398.643 290 563.5 290 728.357 423.643 862 588.5 862ZM647.617 644.072 479.361 708.786C456.74 717.531 434.469 695.26 443.215 672.639L507.928 504.383C511.776 494.472 519.472 486.776 529.383 482.928L697.639 418.215C720.26 409.469 742.531 431.74 733.785 454.361L669.072 622.617C665.34 632.528 657.528 640.224 647.617 644.072ZM625.812 563.5C625.812 542.893 609.107 526.188 588.5 526.188 567.893 526.188 551.188 542.893 551.188 563.5 551.188 584.107 567.893 600.813 588.5 600.813 609.107 600.813 625.812 584.107 625.812 563.5Z" fill-rule="evenodd"/></g></svg>