<svg width="649" height="650" xmlns="http://www.w3.org/2000/svg" xmlns:xlink="http://www.w3.org/1999/xlink" overflow="hidden"><defs><clipPath id="clip0"><rect x="1826" y="1730" width="649" height="650"/></clipPath></defs><g clip-path="url(#clip0)" transform="translate(-1826 -1730)"><path d="M2130 2197.93C2130 2138.27 2198.15 2044.95 2225.99 2014.17 2253.82 1983.38 2274.52 1986.18 2297.01 2013.21 2321.83 2043.03 2393 2138.27 2393 2197.93 2393 2270.29 2334.1 2329 2261.5 2329 2188.9 2329 2130 2270.29 2130 2197.93Z" fill="#195FAB" fill-rule="evenodd" fill-opacity="0.301961"/><path d="M1908 2152.1C1908 2115.28 1949.98 2057.68 1967.13 2038.68 1984.27 2019.68 1997.02 2021.41 2010.87 2038.09 2026.16 2056.5 2070 2115.28 2070 2152.1 2070 2196.77 2033.72 2233 1989 2233 1944.28 2233 1908 2196.77 1908 2152.1Z" fill="#195FAB" fill-rule="evenodd"/><path d="M2047 1903.1C2047 1866.28 2088.72 1808.68 2105.76 1789.68 2122.8 1770.68 2135.47 1772.41 2149.24 1789.09 2164.43 1807.5 2208 1866.28 2208 1903.1 2208 1947.77 2171.94 1984 2127.5 1984 2083.06 1984 2047 1947.77 2047 1903.1Z" fill="#195FAB" fill-rule="evenodd"/></g></svg>