<svg width="650" height="650" xmlns="http://www.w3.org/2000/svg" xmlns:xlink="http://www.w3.org/1999/xlink" overflow="hidden"><defs><clipPath id="clip0"><rect x="2589" y="1730" width="650" height="650"/></clipPath></defs><g clip-path="url(#clip0)" transform="translate(-2589 -1730)"><path d="M2894 2197.93C2894 2138.27 2961.89 2044.95 2989.62 2014.17 3017.35 1983.38 3037.97 1986.18 3060.38 2013.21 3085.1 2043.03 3156 2138.27 3156 2197.93 3156 2270.29 3097.32 2329 3025 2329 2952.68 2329 2894 2270.29 2894 2197.93Z" fill="#195FAB" fill-rule="evenodd"/><path d="M2672 2152.1C2672 2115.28 2713.98 2057.68 2731.13 2038.68 2748.27 2019.68 2761.02 2021.41 2774.87 2038.09 2790.16 2056.5 2834 2115.28 2834 2152.1 2834 2196.77 2797.72 2233 2753 2233 2708.28 2233 2672 2196.77 2672 2152.1Z" fill="#195FAB" fill-rule="evenodd"/><path d="M2810 1903.1C2810 1866.28 2851.98 1808.68 2869.13 1789.68 2886.27 1770.68 2899.02 1772.41 2912.87 1789.09 2928.16 1807.5 2972 1866.28 2972 1903.1 2972 1947.77 2935.72 1984 2891 1984 2846.28 1984 2810 1947.77 2810 1903.1Z" fill="#195FAB" fill-rule="evenodd"/></g></svg>