<svg width="650" height="650" xmlns="http://www.w3.org/2000/svg" xmlns:xlink="http://www.w3.org/1999/xlink" overflow="hidden"><defs><clipPath id="clip0"><rect x="1009" y="1730" width="650" height="650"/></clipPath></defs><g clip-path="url(#clip0)" transform="translate(-1009 -1730)"><path d="M1314 2197.93C1314 2138.27 1381.89 2044.95 1409.62 2014.17 1437.35 1983.38 1457.97 1986.18 1480.38 2013.21 1505.1 2043.03 1576 2138.27 1576 2197.93 1576 2270.29 1517.32 2329 1445 2329 1372.68 2329 1314 2270.29 1314 2197.93Z" fill="#195FAB" fill-rule="evenodd" fill-opacity="0.301961"/><path d="M1092 2152.1C1092 2115.28 1133.98 2057.68 1151.13 2038.68 1168.27 2019.68 1181.02 2021.41 1194.87 2038.09 1210.16 2056.5 1254 2115.28 1254 2152.1 1254 2196.77 1217.72 2233 1173 2233 1128.28 2233 1092 2196.77 1092 2152.1Z" fill="#195FAB" fill-rule="evenodd"/><path d="M1230 1903.1C1230 1866.28 1271.98 1808.68 1289.13 1789.68 1306.27 1770.68 1319.02 1772.41 1332.87 1789.09 1348.16 1807.5 1392 1866.28 1392 1903.1 1392 1947.77 1355.72 1984 1311 1984 1266.28 1984 1230 1947.77 1230 1903.1Z" fill="#195FAB" fill-rule="evenodd" fill-opacity="0.301961"/></g></svg>