<svg width="390" height="389" xmlns="http://www.w3.org/2000/svg" xmlns:xlink="http://www.w3.org/1999/xlink" overflow="hidden"><defs><clipPath id="clip0"><rect x="1634" y="1149" width="390" height="389"/></clipPath></defs><g clip-path="url(#clip0)" transform="translate(-1634 -1149)"><path d="M1697 1380.93C1697 1321.27 1765.15 1227.95 1792.99 1197.17 1820.82 1166.38 1841.52 1169.18 1864.01 1196.21 1888.83 1226.03 1960 1321.27 1960 1380.93 1960 1453.29 1901.1 1512 1828.5 1512 1755.9 1512 1697 1453.29 1697 1380.93Z" fill="#195FAB" fill-rule="evenodd" fill-opacity="0.301961"/><path d="M1697 1380.79C1706.59 1326.01 1710.31 1327.13 1726.02 1293.18 1738.29 1297 1766.41 1310.89 1790.41 1308.4 1814.41 1305.92 1846.64 1280.65 1870.03 1278.26 1893.42 1275.87 1916.9 1290.68 1930.75 1294.04 1942.01 1319.71 1958.83 1348.76 1960 1380.79 1960 1453.23 1901.1 1512 1828.5 1512 1755.9 1512 1697 1453.23 1697 1380.79Z" fill="#195FAB" fill-rule="evenodd"/></g></svg>