<svg width="650" height="650" xmlns="http://www.w3.org/2000/svg" xmlns:xlink="http://www.w3.org/1999/xlink" overflow="hidden"><defs><clipPath id="clip0"><rect x="200" y="1736" width="650" height="650"/></clipPath></defs><g clip-path="url(#clip0)" transform="translate(-200 -1736)"><path d="M505 2204.54C505 2144.7 573.154 2051.11 600.989 2020.23 628.824 1989.35 649.52 1992.16 672.011 2019.27 696.827 2049.18 768 2144.7 768 2204.54 768 2277.12 709.099 2336 636.5 2336 563.901 2336 505 2277.12 505 2204.54Z" fill="#195FAB" fill-rule="evenodd" fill-opacity="0.301961"/><path d="M283 2159.1C283 2122.28 324.981 2064.68 342.126 2045.68 359.272 2026.68 372.02 2028.41 385.874 2045.09 401.16 2063.5 445 2122.28 445 2159.1 445 2203.77 408.719 2240 364 2240 319.281 2240 283 2203.77 283 2159.1Z" fill="#195FAB" fill-rule="evenodd" fill-opacity="0.301961"/><path d="M421 1909.1C421 1872.28 462.981 1814.68 480.126 1795.68 497.272 1776.68 510.02 1778.41 523.874 1795.09 539.159 1813.5 583 1872.28 583 1909.1 583 1953.77 546.719 1990 502 1990 457.281 1990 421 1953.77 421 1909.1Z" fill="#195FAB" fill-rule="evenodd" fill-opacity="0.301961"/></g></svg>