<svg width="390" height="390" xmlns="http://www.w3.org/2000/svg" xmlns:xlink="http://www.w3.org/1999/xlink" overflow="hidden"><defs><clipPath id="clip0"><rect x="898" y="1144" width="390" height="390"/></clipPath></defs><g clip-path="url(#clip0)" transform="translate(-898 -1144)"><path d="M962 1376.54C962 1316.7 1030.15 1223.11 1057.99 1192.23 1085.82 1161.35 1106.52 1164.16 1129.01 1191.27 1153.83 1221.18 1225 1316.7 1225 1376.54 1225 1449.12 1166.1 1508 1093.5 1508 1020.9 1508 962 1449.12 962 1376.54Z" fill="#195FAB" fill-rule="evenodd" fill-opacity="0.301961"/><path d="M962 1376.66C985.225 1389.04 1005.64 1402.92 1035.62 1399.56 1065.61 1396.2 1110.2 1358.74 1141.91 1356.5 1183.8 1353.54 1199.19 1364.12 1225 1376.66 1225 1449.17 1166.1 1508 1093.5 1508 1020.9 1508 962 1449.17 962 1376.66Z" fill="#195FAB" fill-rule="evenodd"/></g></svg>