<svg width="650" height="650" xmlns="http://www.w3.org/2000/svg" xmlns:xlink="http://www.w3.org/1999/xlink" overflow="hidden"><defs><clipPath id="clip0"><rect x="967" y="1333" width="650" height="650"/></clipPath></defs><g clip-path="url(#clip0)" transform="translate(-967 -1333)"><path d="M1079.58 1567.34C1133.13 1449.77 1271.64 1397.96 1388.96 1451.63 1441.41 1475.62 1483.15 1518.21 1506.14 1571.2" stroke="#000000" stroke-width="55" stroke-linecap="round" stroke-linejoin="round" stroke-miterlimit="10" fill="none" fill-rule="evenodd"/><path d="M1515.28 1585.53 1538.66 1459.06" stroke="#000000" stroke-width="55" stroke-linecap="round" stroke-linejoin="round" stroke-miterlimit="10" fill="none" fill-rule="evenodd"/><path d="M0 0 90.9449 90.9449" stroke="#000000" stroke-width="55" stroke-linecap="round" stroke-linejoin="round" stroke-miterlimit="10" fill="none" fill-rule="evenodd" transform="matrix(-0.566779 -0.82387 -0.82387 0.566779 1515.28 1585.53)"/><path d="M1505.3 1753.84C1451.54 1871.36 1312.69 1923.05 1195.16 1869.3 1142.74 1845.31 1101.01 1802.82 1077.98 1749.97" stroke="#000000" stroke-width="55" stroke-linecap="round" stroke-linejoin="round" stroke-miterlimit="10" fill="none" fill-rule="evenodd"/><path d="M1068.46 1734.67 1045.08 1861.14" stroke="#000000" stroke-width="55" stroke-linecap="round" stroke-linejoin="round" stroke-miterlimit="10" fill="none" fill-rule="evenodd"/><path d="M0 0 90.9449 90.9449" stroke="#000000" stroke-width="55" stroke-linecap="round" stroke-linejoin="round" stroke-miterlimit="10" fill="none" fill-rule="evenodd" transform="matrix(0.566779 0.82387 0.82387 -0.566779 1068.46 1734.67)"/></g></svg>