<svg width="649" height="650" xmlns="http://www.w3.org/2000/svg" xmlns:xlink="http://www.w3.org/1999/xlink" overflow="hidden"><defs><clipPath id="clip0"><rect x="3183" y="1250" width="649" height="650"/></clipPath></defs><g clip-path="url(#clip0)" transform="translate(-3183 -1250)"><path d="M0 103.111 156.47 104 259.928 0 365.951 104 519 104" stroke="#FFCD2F" stroke-width="55" stroke-linecap="round" stroke-linejoin="round" stroke-miterlimit="10" fill="none" fill-rule="evenodd" transform="matrix(-1 1.22465e-16 1.22465e-16 1 3764.5 1633.5)"/><path d="M3505.5 1303.5 3505.5 1368.46" stroke="#FFCD2F" stroke-width="55" stroke-linecap="round" stroke-linejoin="round" stroke-miterlimit="10" fill="none" fill-rule="evenodd"/><path d="M3799.46 1591.5 3734.5 1591.5" stroke="#FFCD2F" stroke-width="55" stroke-linecap="round" stroke-linejoin="round" stroke-miterlimit="10" fill="none" fill-rule="evenodd"/><path d="M3286.46 1591.5 3221.5 1591.5" stroke="#FFCD2F" stroke-width="55" stroke-linecap="round" stroke-linejoin="round" stroke-miterlimit="10" fill="none" fill-rule="evenodd"/><path d="M3705.05 1385.82 3659.12 1431.75" stroke="#FFCD2F" stroke-width="55" stroke-linecap="round" stroke-linejoin="round" stroke-miterlimit="10" fill="none" fill-rule="evenodd"/><path d="M3296.97 1387.22 3342.9 1433.16" stroke="#FFCD2F" stroke-width="55" stroke-linecap="round" stroke-linejoin="round" stroke-miterlimit="10" fill="none" fill-rule="evenodd"/><path d="M3377.84 1679C3333.83 1614.15 3344.95 1526.79 3403.81 1474.97 3462.67 1423.15 3550.95 1422.99 3610 1474.6 3669.04 1526.22 3679.95 1612.58 3636.7 1678.54L3549.24 1593.15C3526.87 1571.98 3497.61 1557.67 3458.03 1596.58L3377.84 1679Z" fill="#FFCD2F" fill-rule="evenodd"/></g></svg>