<svg width="649" height="650" xmlns="http://www.w3.org/2000/svg" xmlns:xlink="http://www.w3.org/1999/xlink" overflow="hidden"><defs><clipPath id="clip0"><rect x="2320" y="1251" width="649" height="650"/></clipPath></defs><g clip-path="url(#clip0)" transform="translate(-2320 -1251)"><path d="M2514.81 1680.44C2466.52 1609.1 2485.21 1512.11 2556.56 1463.81 2627.9 1415.52 2724.89 1434.21 2773.19 1505.55 2808.82 1558.2 2808.95 1627.21 2773.5 1679.99Z" fill="#FF922F" fill-rule="evenodd"/><path d="M2641.5 1304.5 2641.5 1369.46" stroke="#FF922F" stroke-width="55" stroke-linecap="round" stroke-linejoin="round" stroke-miterlimit="10" fill="none" fill-rule="evenodd"/><path d="M2936.46 1592.5 2871.5 1592.5" stroke="#FF922F" stroke-width="55" stroke-linecap="round" stroke-linejoin="round" stroke-miterlimit="10" fill="none" fill-rule="evenodd"/><path d="M2423.46 1592.5 2358.5 1592.5" stroke="#FF922F" stroke-width="55" stroke-linecap="round" stroke-linejoin="round" stroke-miterlimit="10" fill="none" fill-rule="evenodd"/><path d="M2841.7 1386.65 2795.76 1432.58" stroke="#FF922F" stroke-width="55" stroke-linecap="round" stroke-linejoin="round" stroke-miterlimit="10" fill="none" fill-rule="evenodd"/><path d="M2433.61 1388.05 2479.55 1433.99" stroke="#FF922F" stroke-width="55" stroke-linecap="round" stroke-linejoin="round" stroke-miterlimit="10" fill="none" fill-rule="evenodd"/><path d="M0 103.111 156.771 104 260.428 0 366.656 104 520 104" stroke="#FF922F" stroke-width="55" stroke-linecap="round" stroke-linejoin="round" stroke-miterlimit="10" fill="none" fill-rule="evenodd" transform="matrix(1 0 0 -1 2381.5 1841.5)"/></g></svg>