<svg width="650" height="650" xmlns="http://www.w3.org/2000/svg" xmlns:xlink="http://www.w3.org/1999/xlink" overflow="hidden"><defs><clipPath id="clip0"><rect x="3334" y="185" width="650" height="650"/></clipPath></defs><g clip-path="url(#clip0)" transform="translate(-3334 -185)"><path d="M3659.48 250C3675.7 250 3690.67 258.571 3698.9 272.628L3945.72 693.2C3954.06 707.372 3954.06 724.857 3945.94 739.029 3937.83 753.2 3922.63 762 3906.29 762L3412.66 762C3396.32 762 3381.13 753.2 3373.01 739.029 3364.9 724.857 3365.02 707.257 3373.24 693.2L3620.06 272.628C3628.28 258.571 3643.25 250 3659.48 250ZM3659.48 396.286C3644.28 396.286 3632.06 408.514 3632.06 423.714L3632.06 551.714C3632.06 566.914 3644.28 579.143 3659.48 579.143 3674.68 579.143 3686.9 566.914 3686.9 551.714L3686.9 423.714C3686.9 408.514 3674.68 396.286 3659.48 396.286ZM3696.04 652.286C3696.04 632.088 3679.67 615.714 3659.48 615.714 3639.28 615.714 3622.91 632.088 3622.91 652.286 3622.91 672.484 3639.28 688.857 3659.48 688.857 3679.67 688.857 3696.04 672.484 3696.04 652.286Z" fill-rule="evenodd"/></g></svg>