<svg width="650" height="650" xmlns="http://www.w3.org/2000/svg" xmlns:xlink="http://www.w3.org/1999/xlink" overflow="hidden"><defs><clipPath id="clip0"><rect x="173" y="901" width="650" height="650"/></clipPath></defs><g clip-path="url(#clip0)" transform="translate(-173 -901)"><path d="M471 937C471 922.641 482.641 911 497 911 511.359 911 523 922.641 523 937 523 951.359 511.359 963 497 963 482.641 963 471 951.359 471 937Z" fill="#000000" fill-rule="evenodd" fill-opacity="0.54902"/><path d="M471 1512C471 1497.64 482.641 1486 497 1486 511.359 1486 523 1497.64 523 1512 523 1526.36 511.359 1538 497 1538 482.641 1538 471 1526.36 471 1512Z" fill="#000000" fill-rule="evenodd" fill-opacity="0.54902"/><path d="M761 1226C761 1211.64 772.641 1200 787 1200 801.359 1200 813 1211.64 813 1226 813 1240.36 801.359 1252 787 1252 772.641 1252 761 1240.36 761 1226Z" fill="#000000" fill-rule="evenodd" fill-opacity="0.54902"/><path d="M183 1226C183 1211.64 194.641 1200 209 1200 223.359 1200 235 1211.64 235 1226 235 1240.36 223.359 1252 209 1252 194.641 1252 183 1240.36 183 1226Z" fill="#000000" fill-rule="evenodd" fill-opacity="0.54902"/><path d="M680 1019.5C680 1008.73 688.73 1000 699.5 1000 710.27 1000 719 1008.73 719 1019.5 719 1030.27 710.27 1039 699.5 1039 688.73 1039 680 1030.27 680 1019.5Z" fill="#000000" fill-rule="evenodd" fill-opacity="0.4"/><path d="M275 1020.5C275 1009.73 283.73 1001 294.5 1001 305.269 1001 314 1009.73 314 1020.5 314 1031.27 305.269 1040 294.5 1040 283.73 1040 275 1031.27 275 1020.5Z" fill="#000000" fill-rule="evenodd" fill-opacity="0.4"/><path d="M683 1428.5C683 1417.73 691.73 1409 702.5 1409 713.269 1409 722 1417.73 722 1428.5 722 1439.27 713.269 1448 702.5 1448 691.73 1448 683 1439.27 683 1428.5Z" fill="#000000" fill-rule="evenodd" fill-opacity="0.4"/><path d="M275 1428.5C275 1417.73 283.73 1409 294.5 1409 305.269 1409 314 1417.73 314 1428.5 314 1439.27 305.269 1448 294.5 1448 283.73 1448 275 1439.27 275 1428.5Z" fill="#000000" fill-rule="evenodd" fill-opacity="0.4"/></g></svg>