<svg width="649" height="650" xmlns="http://www.w3.org/2000/svg" xmlns:xlink="http://www.w3.org/1999/xlink" xml:space="preserve" overflow="hidden"><g transform="translate(-106 -1002)"><path d="M279 1327C279 1240.84 348.844 1171 435 1171 521.156 1171 591 1240.84 591 1327 591 1413.16 521.156 1483 435 1483 348.844 1483 279 1413.16 279 1327Z" fill="#FFCD2F" fill-rule="evenodd"/><path d="M432.5 1038.5 432.5 1103.46" stroke="#FFCD2F" stroke-width="55" stroke-linecap="round" stroke-linejoin="round" stroke-miterlimit="10" fill="none" fill-rule="evenodd"/><path d="M432.5 1558.5 432.5 1623.46" stroke="#FFCD2F" stroke-width="55" stroke-linecap="round" stroke-linejoin="round" stroke-miterlimit="10" fill="none" fill-rule="evenodd"/><path d="M727.461 1326.5 662.5 1326.5" stroke="#FFCD2F" stroke-width="55" stroke-linecap="round" stroke-linejoin="round" stroke-miterlimit="10" fill="none" fill-rule="evenodd"/><path d="M214.461 1326.5 149.5 1326.5" stroke="#FFCD2F" stroke-width="55" stroke-linecap="round" stroke-linejoin="round" stroke-miterlimit="10" fill="none" fill-rule="evenodd"/><path d="M632.53 1120.81 586.596 1166.75" stroke="#FFCD2F" stroke-width="55" stroke-linecap="round" stroke-linejoin="round" stroke-miterlimit="10" fill="none" fill-rule="evenodd"/><path d="M268.995 1484.35 223.061 1530.28" stroke="#FFCD2F" stroke-width="55" stroke-linecap="round" stroke-linejoin="round" stroke-miterlimit="10" fill="none" fill-rule="evenodd"/><path d="M224.447 1122.22 270.381 1168.15" stroke="#FFCD2F" stroke-width="55" stroke-linecap="round" stroke-linejoin="round" stroke-miterlimit="10" fill="none" fill-rule="evenodd"/><path d="M592.366 1490.14 638.301 1536.07" stroke="#FFCD2F" stroke-width="55" stroke-linecap="round" stroke-linejoin="round" stroke-miterlimit="10" fill="none" fill-rule="evenodd"/></g></svg>