<svg width="650" height="650" xmlns="http://www.w3.org/2000/svg" xmlns:xlink="http://www.w3.org/1999/xlink" overflow="hidden"><defs><clipPath id="clip0"><rect x="3049" y="860" width="650" height="650"/></clipPath></defs><g clip-path="url(#clip0)" transform="translate(-3049 -860)"><path d="M3532.11 1297C3436.4 1296.14 3365.71 1297.19 3270 1296.32L3397.46 1122.67C3422.8 1088.68 3460.37 1037 3532.11 1037 3603.85 1037 3662 1095.2 3662 1167 3662 1238.8 3603.85 1297 3532.11 1297Z" fill="#7A9BB2" fill-rule="evenodd"/><path d="M3089 1117C3089 1016.48 3170.48 935 3271 935 3371.52 935 3453 1016.48 3453 1117 3453 1217.52 3371.52 1299 3271 1299 3170.48 1299 3089 1217.52 3089 1117Z" fill="#AFC3D1" fill-rule="evenodd"/><path d="M3485 1297.5C3485 1281.76 3497.76 1269 3513.5 1269 3529.24 1269 3542 1281.76 3542 1297.5 3542 1313.24 3529.24 1326 3513.5 1326 3497.76 1326 3485 1313.24 3485 1297.5Z" stroke="#EDF3FB" stroke-width="45.8333" stroke-linecap="round" stroke-linejoin="round" stroke-miterlimit="10" fill="#EDF3FB" fill-rule="evenodd"/><path d="M3375 1408.5C3375 1392.76 3387.76 1380 3403.5 1380 3419.24 1380 3432 1392.76 3432 1408.5 3432 1424.24 3419.24 1437 3403.5 1437 3387.76 1437 3375 1424.24 3375 1408.5Z" stroke="#EDF3FB" stroke-width="45.8333" stroke-linecap="round" stroke-linejoin="round" stroke-miterlimit="10" fill="#EDF3FB" fill-rule="evenodd"/><path d="M3218 1320.5C3218 1304.76 3230.76 1292 3246.5 1292 3262.24 1292 3275 1304.76 3275 1320.5 3275 1336.24 3262.24 1349 3246.5 1349 3230.76 1349 3218 1336.24 3218 1320.5Z" stroke="#EDF3FB" stroke-width="45.8333" stroke-linecap="round" stroke-linejoin="round" stroke-miterlimit="10" fill="#EDF3FB" fill-rule="evenodd"/></g></svg>