<svg width="649" height="649" xmlns="http://www.w3.org/2000/svg" xmlns:xlink="http://www.w3.org/1999/xlink" overflow="hidden"><defs><clipPath id="clip0"><rect x="26" y="120" width="649" height="649"/></clipPath></defs><g clip-path="url(#clip0)" transform="translate(-26 -120)"><path d="M509.109 551C413.401 550.138 342.709 551.187 247 550.325L374.463 376.667C399.8 342.684 437.372 291 509.109 291 580.846 291 639 349.203 639 421 639 492.797 580.846 551 509.109 551Z" fill="#A0B8C8" fill-rule="evenodd"/><path d="M66 370C66 269.484 147.484 188 248 188 348.516 188 430 269.484 430 370 430 470.516 348.516 552 248 552 147.484 552 66 470.516 66 370Z" fill="#C6D4DE" fill-rule="evenodd"/><path d="M476.5 669.801 476.5 640.5" stroke="#EDF3FB" stroke-width="36.6667" stroke-linecap="round" stroke-linejoin="round" stroke-miterlimit="10" fill="none" fill-rule="evenodd"/><path d="M476.5 669.5 476.5 698.802" stroke="#EDF3FB" stroke-width="36.6667" stroke-linecap="round" stroke-linejoin="round" stroke-miterlimit="10" fill="none" fill-rule="evenodd"/><path d="M476.562 670.187 503.515 654.625" stroke="#EDF3FB" stroke-width="36.6667" stroke-linecap="round" stroke-linejoin="round" stroke-miterlimit="10" fill="none" fill-rule="evenodd"/><path d="M476.337 669.206 449.384 684.768" stroke="#EDF3FB" stroke-width="36.6667" stroke-linecap="round" stroke-linejoin="round" stroke-miterlimit="10" fill="none" fill-rule="evenodd"/><path d="M475.695 669.171 502.649 684.733" stroke="#EDF3FB" stroke-width="36.6667" stroke-linecap="round" stroke-linejoin="round" stroke-miterlimit="10" fill="none" fill-rule="evenodd"/><path d="M476.174 670.152 449.22 654.59" stroke="#EDF3FB" stroke-width="36.6667" stroke-linecap="round" stroke-linejoin="round" stroke-miterlimit="10" fill="none" fill-rule="evenodd"/><path d="M349.5 549.802 349.5 520.5" stroke="#EDF3FB" stroke-width="36.6667" stroke-linecap="round" stroke-linejoin="round" stroke-miterlimit="10" fill="none" fill-rule="evenodd"/><path d="M349.5 549.5 349.5 578.802" stroke="#EDF3FB" stroke-width="36.6667" stroke-linecap="round" stroke-linejoin="round" stroke-miterlimit="10" fill="none" fill-rule="evenodd"/><path d="M350.013 549.77 376.967 534.208" stroke="#EDF3FB" stroke-width="36.6667" stroke-linecap="round" stroke-linejoin="round" stroke-miterlimit="10" fill="none" fill-rule="evenodd"/><path d="M349.789 548.79 322.835 564.352" stroke="#EDF3FB" stroke-width="36.6667" stroke-linecap="round" stroke-linejoin="round" stroke-miterlimit="10" fill="none" fill-rule="evenodd"/><path d="M349.146 548.755 376.1 564.316" stroke="#EDF3FB" stroke-width="36.6667" stroke-linecap="round" stroke-linejoin="round" stroke-miterlimit="10" fill="none" fill-rule="evenodd"/><path d="M349.626 549.735 322.672 534.174" stroke="#EDF3FB" stroke-width="36.6667" stroke-linecap="round" stroke-linejoin="round" stroke-miterlimit="10" fill="none" fill-rule="evenodd"/><path d="M0 0 68.5598 67.4057" stroke="#195FAB" stroke-width="55" stroke-linecap="round" stroke-linejoin="round" stroke-miterlimit="10" fill="none" fill-rule="evenodd" transform="matrix(-1 0 0 1 225.06 549.5)"/><path d="M0 0 22.9538 23.0636" stroke="#5B9EE7" stroke-width="55" stroke-linecap="round" stroke-linejoin="round" stroke-miterlimit="10" fill="none" fill-rule="evenodd" transform="matrix(-1 0 0 1 281.454 617.5)"/><path d="M0 0 67.6125 67.6117" stroke="#195FAB" stroke-width="55" stroke-linecap="round" stroke-linejoin="round" stroke-miterlimit="10" fill="none" fill-rule="evenodd" transform="matrix(-1 0 0 1 409.112 617.5)"/><path d="M0 0 12.0859 13.4801" stroke="#195FAB" stroke-width="55" stroke-linecap="round" stroke-linejoin="round" stroke-miterlimit="10" fill="none" fill-rule="evenodd" transform="matrix(-1 0 0 1 546.586 596.5)"/><path d="M0 0 10.3125 10.3125" stroke="#5B9EE7" stroke-width="55" stroke-linecap="round" stroke-linejoin="round" stroke-miterlimit="10" fill="none" fill-rule="evenodd" transform="matrix(-1 0 0 1 465.812 560.5)"/></g></svg>