<svg width="649" height="650" xmlns="http://www.w3.org/2000/svg" xmlns:xlink="http://www.w3.org/1999/xlink" overflow="hidden"><defs><clipPath id="clip0"><rect x="2538" y="144" width="649" height="650"/></clipPath></defs><g clip-path="url(#clip0)" transform="translate(-2538 -144)"><path d="M3021.11 572C2925.4 571.138 2854.71 572.187 2759 571.325L2886.46 397.667C2911.8 363.684 2949.37 312 3021.11 312 3092.85 312 3151 370.203 3151 442 3151 513.797 3092.85 572 3021.11 572Z" fill="#A0B8C8" fill-rule="evenodd"/><path d="M2578 392C2578 291.484 2659.48 210 2760 210 2860.52 210 2942 291.484 2942 392 2942 492.516 2860.52 574 2760 574 2659.48 574 2578 492.516 2578 392Z" fill="#C6D4DE" fill-rule="evenodd"/><path d="M0 0 68.5598 67.4053" stroke="#195FAB" stroke-width="55" stroke-linecap="round" stroke-linejoin="round" stroke-miterlimit="10" fill="none" fill-rule="evenodd" transform="matrix(-1 0 0 1 2735.06 578.5)"/><path d="M0 0 116.206 116.072" stroke="#5B9EE7" stroke-width="55" stroke-linecap="round" stroke-linejoin="round" stroke-miterlimit="10" fill="none" fill-rule="evenodd" transform="matrix(-1 0 0 1 2884.71 553.5)"/><path d="M0 0 67.6128 67.611" stroke="#195FAB" stroke-width="55" stroke-linecap="round" stroke-linejoin="round" stroke-miterlimit="10" fill="none" fill-rule="evenodd" transform="matrix(-1 0 0 1 2919.11 646.5)"/><path d="M0 0 69.2657 69.6634" stroke="#195FAB" stroke-width="55" stroke-linecap="round" stroke-linejoin="round" stroke-miterlimit="10" fill="none" fill-rule="evenodd" transform="matrix(-1 0 0 1 3056.77 625.5)"/><path d="M0 0 10.3125 10.3125" stroke="#5B9EE7" stroke-width="55" stroke-linecap="round" stroke-linejoin="round" stroke-miterlimit="10" fill="none" fill-rule="evenodd" transform="matrix(-1 0 0 1 2976.81 589.5)"/></g></svg>