<svg width="650" height="649" xmlns="http://www.w3.org/2000/svg" xmlns:xlink="http://www.w3.org/1999/xlink" overflow="hidden"><defs><clipPath id="clip0"><rect x="952" y="163" width="650" height="649"/></clipPath></defs><g clip-path="url(#clip0)" transform="translate(-952 -163)"><path d="M1435.11 668C1339.4 667.138 1268.71 668.187 1173 667.325L1300.46 493.667C1325.8 459.684 1363.37 408 1435.11 408 1506.85 408 1565 466.203 1565 538 1565 609.797 1506.85 668 1435.11 668Z" fill="#A0B8C8" fill-rule="evenodd"/><path d="M992 488C992 387.484 1073.48 306 1174 306 1274.52 306 1356 387.484 1356 488 1356 588.516 1274.52 670 1174 670 1073.48 670 992 588.516 992 488Z" fill="#C6D4DE" fill-rule="evenodd"/></g></svg>