<svg width="650" height="650" xmlns="http://www.w3.org/2000/svg" xmlns:xlink="http://www.w3.org/1999/xlink" overflow="hidden"><defs><clipPath id="clip0"><rect x="952" y="1009" width="650" height="650"/></clipPath></defs><g clip-path="url(#clip0)" transform="translate(-952 -1009)"><path d="M1435.11 1514C1339.4 1513.14 1268.71 1514.19 1173 1513.32L1300.46 1339.67C1325.8 1305.68 1363.37 1254 1435.11 1254 1506.85 1254 1565 1312.2 1565 1384 1565 1455.8 1506.85 1514 1435.11 1514Z" fill="#7A9BB2" fill-rule="evenodd"/><path d="M992 1334C992 1233.48 1073.48 1152 1174 1152 1274.52 1152 1356 1233.48 1356 1334 1356 1434.52 1274.52 1516 1174 1516 1073.48 1516 992 1434.52 992 1334Z" fill="#AFC3D1" fill-rule="evenodd"/></g></svg>