<svg width="650" height="650" xmlns="http://www.w3.org/2000/svg" xmlns:xlink="http://www.w3.org/1999/xlink" overflow="hidden"><defs><clipPath id="clip0"><rect x="3043" y="115" width="650" height="650"/></clipPath></defs><g clip-path="url(#clip0)" transform="translate(-3043 -115)"><path d="M3526.11 552C3430.4 551.138 3359.71 552.187 3264 551.325L3391.46 377.667C3416.8 343.683 3454.37 292 3526.11 292 3597.85 292 3656 350.203 3656 422 3656 493.797 3597.85 552 3526.11 552Z" fill="#A0B8C8" fill-rule="evenodd"/><path d="M3083 371.5C3083 271.26 3164.48 190 3265 190 3365.52 190 3447 271.26 3447 371.5 3447 471.74 3365.52 553 3265 553 3164.48 553 3083 471.74 3083 371.5Z" fill="#C6D4DE" fill-rule="evenodd"/><path d="M3479 551.5C3479 535.76 3491.76 523 3507.5 523 3523.24 523 3536 535.76 3536 551.5 3536 567.24 3523.24 580 3507.5 580 3491.76 580 3479 567.24 3479 551.5Z" stroke="#EDF3FB" stroke-width="45.8333" stroke-linecap="round" stroke-linejoin="round" stroke-miterlimit="10" fill="#EDF3FB" fill-rule="evenodd"/><path d="M3369 663.5C3369 647.76 3381.76 635 3397.5 635 3413.24 635 3426 647.76 3426 663.5 3426 679.24 3413.24 692 3397.5 692 3381.76 692 3369 679.24 3369 663.5Z" stroke="#EDF3FB" stroke-width="45.8333" stroke-linecap="round" stroke-linejoin="round" stroke-miterlimit="10" fill="#EDF3FB" fill-rule="evenodd"/><path d="M3211 575.5C3211 559.76 3223.76 547 3239.5 547 3255.24 547 3268 559.76 3268 575.5 3268 591.24 3255.24 604 3239.5 604 3223.76 604 3211 591.24 3211 575.5Z" stroke="#EDF3FB" stroke-width="45.8333" stroke-linecap="round" stroke-linejoin="round" stroke-miterlimit="10" fill="#EDF3FB" fill-rule="evenodd"/></g></svg>