<svg width="649" height="650" xmlns="http://www.w3.org/2000/svg" xmlns:xlink="http://www.w3.org/1999/xlink" overflow="hidden"><defs><clipPath id="clip0"><rect x="2538" y="1008" width="649" height="650"/></clipPath></defs><g clip-path="url(#clip0)" transform="translate(-2538 -1008)"><path d="M3021.11 1436C2925.4 1435.14 2854.71 1436.19 2759 1435.32L2886.46 1261.67C2911.8 1227.68 2949.37 1176 3021.11 1176 3092.85 1176 3151 1234.2 3151 1306 3151 1377.8 3092.85 1436 3021.11 1436Z" fill="#7A9BB2" fill-rule="evenodd"/><path d="M2578 1256C2578 1155.48 2659.48 1074 2760 1074 2860.52 1074 2942 1155.48 2942 1256 2942 1356.52 2860.52 1438 2760 1438 2659.48 1438 2578 1356.52 2578 1256Z" fill="#AFC3D1" fill-rule="evenodd"/><path d="M0 0 68.5598 67.4053" stroke="#195FAB" stroke-width="55" stroke-linecap="round" stroke-linejoin="round" stroke-miterlimit="10" fill="none" fill-rule="evenodd" transform="matrix(-1 0 0 1 2735.06 1443.5)"/><path d="M0 0 116.206 116.072" stroke="#5B9EE7" stroke-width="55" stroke-linecap="round" stroke-linejoin="round" stroke-miterlimit="10" fill="none" fill-rule="evenodd" transform="matrix(-1 0 0 1 2884.71 1417.5)"/><path d="M0 0 67.6128 67.611" stroke="#195FAB" stroke-width="55" stroke-linecap="round" stroke-linejoin="round" stroke-miterlimit="10" fill="none" fill-rule="evenodd" transform="matrix(-1 0 0 1 2919.11 1510.5)"/><path d="M0 0 69.2657 69.6634" stroke="#195FAB" stroke-width="55" stroke-linecap="round" stroke-linejoin="round" stroke-miterlimit="10" fill="none" fill-rule="evenodd" transform="matrix(-1 0 0 1 3056.77 1489.5)"/><path d="M0 0 10.3125 10.3125" stroke="#5B9EE7" stroke-width="55" stroke-linecap="round" stroke-linejoin="round" stroke-miterlimit="10" fill="none" fill-rule="evenodd" transform="matrix(-1 0 0 1 2976.81 1453.5)"/></g></svg>