<svg width="649" height="650" xmlns="http://www.w3.org/2000/svg" xmlns:xlink="http://www.w3.org/1999/xlink" overflow="hidden"><defs><clipPath id="clip0"><rect x="4051" y="1002" width="649" height="650"/></clipPath></defs><g clip-path="url(#clip0)" transform="translate(-4051 -1002)"><path d="M4534.11 1445C4438.4 1444.14 4367.71 1445.19 4272 1444.33L4399.46 1270.67C4424.8 1236.68 4462.37 1185 4534.11 1185 4605.85 1185 4664 1243.2 4664 1315 4664 1386.8 4605.85 1445 4534.11 1445Z" fill="#7A9BB2" fill-rule="evenodd"/><path d="M4091 1265C4091 1164.48 4172.48 1083 4273 1083 4373.52 1083 4455 1164.48 4455 1265 4455 1365.52 4373.52 1447 4273 1447 4172.48 1447 4091 1365.52 4091 1265Z" fill="#AFC3D1" fill-rule="evenodd"/><path d="M4466 1492 4569.94 1492" stroke="#7A9BB2" stroke-width="45.8333" stroke-linecap="round" stroke-linejoin="round" stroke-miterlimit="10" fill="none" fill-rule="evenodd"/><path d="M4194 1494 4351.7 1494" stroke="#AFC3D1" stroke-width="45.8333" stroke-linecap="round" stroke-linejoin="round" stroke-miterlimit="10" fill="none" fill-rule="evenodd"/><path d="M4235 1567 4533.82 1567" stroke="#AFC3D1" stroke-width="45.8333" stroke-linecap="round" stroke-linejoin="round" stroke-miterlimit="10" fill="none" fill-rule="evenodd"/></g></svg>