<svg width="650" height="650" xmlns="http://www.w3.org/2000/svg" xmlns:xlink="http://www.w3.org/1999/xlink" overflow="hidden"><defs><clipPath id="clip0"><rect x="4046" y="158" width="650" height="650"/></clipPath></defs><g clip-path="url(#clip0)" transform="translate(-4046 -158)"><path d="M4529.11 601C4433.4 600.138 4362.71 601.186 4267 600.325L4394.46 426.667C4419.8 392.683 4457.37 341 4529.11 341 4600.85 341 4659 399.203 4659 471 4659 542.797 4600.85 601 4529.11 601Z" fill="#A0B8C8" fill-rule="evenodd"/><path d="M4086 421C4086 320.484 4167.48 239 4268 239 4368.52 239 4450 320.484 4450 421 4450 521.516 4368.52 603 4268 603 4167.48 603 4086 521.516 4086 421Z" fill="#C6D4DE" fill-rule="evenodd"/><path d="M4462 649 4565.94 649" stroke="#A0B8C8" stroke-width="45.8333" stroke-linecap="round" stroke-linejoin="round" stroke-miterlimit="10" fill="none" fill-rule="evenodd"/><path d="M4189 650 4346.7 650" stroke="#C6D4DE" stroke-width="45.8333" stroke-linecap="round" stroke-linejoin="round" stroke-miterlimit="10" fill="none" fill-rule="evenodd"/><path d="M4230 723 4528.82 723" stroke="#C6D4DE" stroke-width="45.8333" stroke-linecap="round" stroke-linejoin="round" stroke-miterlimit="10" fill="none" fill-rule="evenodd"/></g></svg>