<svg width="650" height="649" xmlns="http://www.w3.org/2000/svg" xmlns:xlink="http://www.w3.org/1999/xlink" overflow="hidden"><defs><clipPath id="clip0"><rect x="3283" y="1763" width="650" height="649"/></clipPath></defs><g clip-path="url(#clip0)" transform="translate(-3283 -1763)"><path d="M3751 2011.5C3751 1990.24 3768.46 1973 3790 1973 3811.54 1973 3829 1990.24 3829 2011.5 3829 2032.76 3811.54 2050 3790 2050 3768.46 2050 3751 2032.76 3751 2011.5Z" stroke="#EDF3FB" stroke-width="45.8333" stroke-linecap="round" stroke-linejoin="round" stroke-miterlimit="10" fill="#EDF3FB" fill-rule="evenodd"/><path d="M3601 2163C3601 2141.46 3618.46 2124 3640 2124 3661.54 2124 3679 2141.46 3679 2163 3679 2184.54 3661.54 2202 3640 2202 3618.46 2202 3601 2184.54 3601 2163Z" stroke="#EDF3FB" stroke-width="45.8333" stroke-linecap="round" stroke-linejoin="round" stroke-miterlimit="10" fill="#EDF3FB" fill-rule="evenodd"/><path d="M3386 2044C3386 2022.46 3403.46 2005 3425 2005 3446.54 2005 3464 2022.46 3464 2044 3464 2065.54 3446.54 2083 3425 2083 3403.46 2083 3386 2065.54 3386 2044Z" stroke="#EDF3FB" stroke-width="45.8333" stroke-linecap="round" stroke-linejoin="round" stroke-miterlimit="10" fill="#EDF3FB" fill-rule="evenodd"/></g></svg>