<svg width="649" height="650" xmlns="http://www.w3.org/2000/svg" xmlns:xlink="http://www.w3.org/1999/xlink" overflow="hidden"><defs><clipPath id="clip0"><rect x="120" y="156" width="649" height="650"/></clipPath></defs><g clip-path="url(#clip0)" transform="translate(-120 -156)"><path d="M657.842 203C699.099 262.176 717.503 395.244 686.369 488.146 655.235 581.049 575.913 640.276 509.687 666.593 443.46 692.909 335.206 676.465 289.011 646.046 258.03 671.86 238.257 695.914 213.285 737 200.713 730.931 203.07 733.731 197 725.894 207.429 697.379 271.539 628.036 328.555 586.324 385.571 544.612 490.044 518.508 539.097 475.623 588.15 432.739 610.209 388.421 622.874 329.016 574.952 395.576 547.364 403.804 500.521 430.91 453.679 458.016 386.18 469.796 341.818 491.652 297.456 513.508 278.903 524.966 234.348 562.046 223.801 512.971 225.46 471.335 245.583 432.957 265.707 394.578 296.809 357.531 355.09 331.776 413.37 306.021 528.245 288.851 578.703 267.388 629.162 245.925 635.91 237.647 657.842 203Z" stroke="#000000" stroke-width="45.8333" stroke-linecap="round" stroke-linejoin="round" stroke-miterlimit="10" fill-rule="evenodd"/></g></svg>