<svg width="650" height="649" xmlns="http://www.w3.org/2000/svg" xmlns:xlink="http://www.w3.org/1999/xlink" overflow="hidden"><defs><clipPath id="clip0"><rect x="471" y="1492" width="650" height="649"/></clipPath></defs><g clip-path="url(#clip0)" transform="translate(-471 -1492)"><path d="M954.109 1997C858.4 1996.14 787.708 1997.19 692 1996.32L819.463 1822.67C844.8 1788.68 882.372 1737 954.109 1737 1025.85 1737 1084 1795.2 1084 1867 1084 1938.8 1025.85 1997 954.109 1997Z" fill="#D9E3E9" fill-rule="evenodd"/><path d="M511 1816C511 1715.48 592.484 1634 693 1634 793.516 1634 875 1715.48 875 1816 875 1916.52 793.516 1998 693 1998 592.484 1998 511 1916.52 511 1816Z" fill="#ECF1F4" fill-rule="evenodd"/><path d="M633 1853.5C633 1835.55 647.551 1821 665.5 1821 683.449 1821 698 1835.55 698 1853.5 698 1871.45 683.449 1886 665.5 1886 647.551 1886 633 1871.45 633 1853.5Z" fill="#195FAB" fill-rule="evenodd"/><path d="M767 1853.5C767 1835.55 781.551 1821 799.5 1821 817.449 1821 832 1835.55 832 1853.5 832 1871.45 817.449 1886 799.5 1886 781.551 1886 767 1871.45 767 1853.5Z" fill="#5B9EE7" fill-rule="evenodd"/><path d="M893 1853.5C893 1835.55 907.551 1821 925.5 1821 943.449 1821 958 1835.55 958 1853.5 958 1871.45 943.449 1886 925.5 1886 907.551 1886 893 1871.45 893 1853.5Z" fill="#195FAB" fill-rule="evenodd"/></g></svg>