<svg width="650" height="650" xmlns="http://www.w3.org/2000/svg" xmlns:xlink="http://www.w3.org/1999/xlink" xml:space="preserve" overflow="hidden"><g transform="translate(-3739 -848)"><path d="M4129.56 864 4125.72 871.078C4118.31 888.586 4114.22 907.836 4114.22 928.041 4114.22 1008.86 4179.73 1074.38 4260.53 1074.38L4289 1071.51 4283.36 1089.69C4258.68 1148.05 4200.9 1189 4133.57 1189 4043.78 1189 3971 1116.2 3971 1026.4 3971 942.209 4034.97 872.964 4116.95 864.637Z" fill="#DAE7F7" fill-rule="evenodd"/><path d="M4222.11 1320C4126.4 1319.14 4055.71 1320.19 3960 1319.32L4087.46 1145.67C4112.8 1111.68 4150.37 1060 4222.11 1060 4293.85 1060 4352 1118.2 4352 1190 4352 1261.8 4293.85 1320 4222.11 1320Z" fill="#7A9BB2" fill-rule="evenodd"/><path d="M3779 1139.5C3779 1039.26 3860.48 958 3961 958 4061.52 958 4143 1039.26 4143 1139.5 4143 1239.74 4061.52 1321 3961 1321 3860.48 1321 3779 1239.74 3779 1139.5Z" fill="#AFC3D1" fill-rule="evenodd"/><path d="M4168 1319.5C4168 1303.76 4180.76 1291 4196.5 1291 4212.24 1291 4225 1303.76 4225 1319.5 4225 1335.24 4212.24 1348 4196.5 1348 4180.76 1348 4168 1335.24 4168 1319.5Z" stroke="#EDF3FB" stroke-width="45.8333" stroke-linecap="round" stroke-linejoin="round" stroke-miterlimit="10" fill="#EDF3FB" fill-rule="evenodd"/><path d="M4058 1431C4058 1414.98 4070.76 1402 4086.5 1402 4102.24 1402 4115 1414.98 4115 1431 4115 1447.02 4102.24 1460 4086.5 1460 4070.76 1460 4058 1447.02 4058 1431Z" stroke="#EDF3FB" stroke-width="45.8333" stroke-linecap="round" stroke-linejoin="round" stroke-miterlimit="10" fill="#EDF3FB" fill-rule="evenodd"/><path d="M3900 1343.5C3900 1327.76 3912.76 1315 3928.5 1315 3944.24 1315 3957 1327.76 3957 1343.5 3957 1359.24 3944.24 1372 3928.5 1372 3912.76 1372 3900 1359.24 3900 1343.5Z" stroke="#EDF3FB" stroke-width="45.8333" stroke-linecap="round" stroke-linejoin="round" stroke-miterlimit="10" fill="#EDF3FB" fill-rule="evenodd"/></g></svg>