<svg width="650" height="650" xmlns="http://www.w3.org/2000/svg" xmlns:xlink="http://www.w3.org/1999/xlink" xml:space="preserve" overflow="hidden"><g transform="translate(-778 -114)"><path d="M1114 280.5C1114 239.355 1147.35 206 1188.5 206 1229.65 206 1263 239.355 1263 280.5 1263 321.645 1229.65 355 1188.5 355 1147.35 355 1114 321.645 1114 280.5Z" fill="#FFCD2F" fill-rule="evenodd"/><path d="M1187.5 142.5 1187.5 173.681" stroke="#FFCD2F" stroke-width="41.25" stroke-linecap="round" stroke-linejoin="round" stroke-miterlimit="10" fill="none" fill-rule="evenodd"/><path d="M1187.5 391.5 1187.5 422.681" stroke="#FFCD2F" stroke-width="41.25" stroke-linecap="round" stroke-linejoin="round" stroke-miterlimit="10" fill="none" fill-rule="evenodd"/><path d="M1328.68 280.5 1297.5 280.5" stroke="#FFCD2F" stroke-width="41.25" stroke-linecap="round" stroke-linejoin="round" stroke-miterlimit="10" fill="none" fill-rule="evenodd"/><path d="M1082.68 280.5 1051.5 280.5" stroke="#FFCD2F" stroke-width="41.25" stroke-linecap="round" stroke-linejoin="round" stroke-miterlimit="10" fill="none" fill-rule="evenodd"/><path d="M1283.48 181.624 1261.43 203.672" stroke="#FFCD2F" stroke-width="41.25" stroke-linecap="round" stroke-linejoin="round" stroke-miterlimit="10" fill="none" fill-rule="evenodd"/><path d="M1108.98 356.121 1086.93 378.169" stroke="#FFCD2F" stroke-width="41.25" stroke-linecap="round" stroke-linejoin="round" stroke-miterlimit="10" fill="none" fill-rule="evenodd"/><path d="M1087.6 182.298 1109.64 204.346" stroke="#FFCD2F" stroke-width="41.25" stroke-linecap="round" stroke-linejoin="round" stroke-miterlimit="10" fill="none" fill-rule="evenodd"/><path d="M1264.2 358.899 1286.25 380.947" stroke="#FFCD2F" stroke-width="41.25" stroke-linecap="round" stroke-linejoin="round" stroke-miterlimit="10" fill="none" fill-rule="evenodd"/><path d="M1261.11 586C1165.4 585.138 1094.71 586.187 999 585.325L1126.46 411.667C1151.8 377.683 1189.37 326 1261.11 326 1332.85 326 1391 384.203 1391 456 1391 527.797 1332.85 586 1261.11 586Z" fill="#A0B8C8" fill-rule="evenodd"/><path d="M818 406C818 305.484 899.484 224 1000 224 1100.52 224 1182 305.484 1182 406 1182 506.516 1100.52 588 1000 588 899.484 588 818 506.516 818 406Z" fill="#C6D4DE" fill-rule="evenodd"/><path d="M1227.5 707.802 1227.5 678.5" stroke="#EDF3FB" stroke-width="36.6667" stroke-linecap="round" stroke-linejoin="round" stroke-miterlimit="10" fill="none" fill-rule="evenodd"/><path d="M1227.5 707.5 1227.5 736.802" stroke="#EDF3FB" stroke-width="36.6667" stroke-linecap="round" stroke-linejoin="round" stroke-miterlimit="10" fill="none" fill-rule="evenodd"/><path d="M1227.95 707.829 1254.91 692.267" stroke="#EDF3FB" stroke-width="36.6667" stroke-linecap="round" stroke-linejoin="round" stroke-miterlimit="10" fill="none" fill-rule="evenodd"/><path d="M1227.73 706.849 1200.78 722.411" stroke="#EDF3FB" stroke-width="36.6667" stroke-linecap="round" stroke-linejoin="round" stroke-miterlimit="10" fill="none" fill-rule="evenodd"/><path d="M1227.09 706.814 1254.04 722.375" stroke="#EDF3FB" stroke-width="36.6667" stroke-linecap="round" stroke-linejoin="round" stroke-miterlimit="10" fill="none" fill-rule="evenodd"/><path d="M1227.57 707.794 1200.61 692.232" stroke="#EDF3FB" stroke-width="36.6667" stroke-linecap="round" stroke-linejoin="round" stroke-miterlimit="10" fill="none" fill-rule="evenodd"/><path d="M1101.5 586.802 1101.5 557.5" stroke="#EDF3FB" stroke-width="36.6667" stroke-linecap="round" stroke-linejoin="round" stroke-miterlimit="10" fill="none" fill-rule="evenodd"/><path d="M1101.5 586.5 1101.5 615.802" stroke="#EDF3FB" stroke-width="36.6667" stroke-linecap="round" stroke-linejoin="round" stroke-miterlimit="10" fill="none" fill-rule="evenodd"/><path d="M1101.4 587.413 1128.36 571.851" stroke="#EDF3FB" stroke-width="36.6667" stroke-linecap="round" stroke-linejoin="round" stroke-miterlimit="10" fill="none" fill-rule="evenodd"/><path d="M1101.18 586.432 1074.23 601.994" stroke="#EDF3FB" stroke-width="36.6667" stroke-linecap="round" stroke-linejoin="round" stroke-miterlimit="10" fill="none" fill-rule="evenodd"/><path d="M1100.54 586.397 1127.49 601.958" stroke="#EDF3FB" stroke-width="36.6667" stroke-linecap="round" stroke-linejoin="round" stroke-miterlimit="10" fill="none" fill-rule="evenodd"/><path d="M1101.02 587.377 1074.06 571.816" stroke="#EDF3FB" stroke-width="36.6667" stroke-linecap="round" stroke-linejoin="round" stroke-miterlimit="10" fill="none" fill-rule="evenodd"/><path d="M0 0 68.5598 67.4057" stroke="#195FAB" stroke-width="55" stroke-linecap="round" stroke-linejoin="round" stroke-miterlimit="10" fill="none" fill-rule="evenodd" transform="matrix(-1 0 0 1 976.06 587.5)"/><path d="M0 0 22.9538 23.0636" stroke="#5B9EE7" stroke-width="55" stroke-linecap="round" stroke-linejoin="round" stroke-miterlimit="10" fill="none" fill-rule="evenodd" transform="matrix(-1 0 0 1 1032.45 655.5)"/><path d="M0 0 67.6125 67.6117" stroke="#195FAB" stroke-width="55" stroke-linecap="round" stroke-linejoin="round" stroke-miterlimit="10" fill="none" fill-rule="evenodd" transform="matrix(-1 0 0 1 1160.11 655.5)"/><path d="M0 0 12.0859 13.4801" stroke="#195FAB" stroke-width="55" stroke-linecap="round" stroke-linejoin="round" stroke-miterlimit="10" fill="none" fill-rule="evenodd" transform="matrix(-1 0 0 1 1297.59 634.5)"/><path d="M0 0 10.3125 10.3125" stroke="#5B9EE7" stroke-width="55" stroke-linecap="round" stroke-linejoin="round" stroke-miterlimit="10" fill="none" fill-rule="evenodd" transform="matrix(-1 0 0 1 1217.81 597.5)"/></g></svg>