<svg width="649" height="649" xmlns="http://www.w3.org/2000/svg" xmlns:xlink="http://www.w3.org/1999/xlink" xml:space="preserve" overflow="hidden"><g transform="translate(-1746 -163)"><path d="M2084 404C2084 362.579 2117.35 329 2158.5 329 2199.65 329 2233 362.579 2233 404 2233 445.421 2199.65 479 2158.5 479 2117.35 479 2084 445.421 2084 404Z" fill="#FFCD2F" fill-rule="evenodd"/><path d="M2157.5 265.5 2157.5 296.681" stroke="#FFCD2F" stroke-width="41.25" stroke-linecap="round" stroke-linejoin="round" stroke-miterlimit="10" fill="none" fill-rule="evenodd"/><path d="M2157.5 515.5 2157.5 546.681" stroke="#FFCD2F" stroke-width="41.25" stroke-linecap="round" stroke-linejoin="round" stroke-miterlimit="10" fill="none" fill-rule="evenodd"/><path d="M2299.68 404.5 2268.5 404.5" stroke="#FFCD2F" stroke-width="41.25" stroke-linecap="round" stroke-linejoin="round" stroke-miterlimit="10" fill="none" fill-rule="evenodd"/><path d="M2052.68 404.5 2021.5 404.5" stroke="#FFCD2F" stroke-width="41.25" stroke-linecap="round" stroke-linejoin="round" stroke-miterlimit="10" fill="none" fill-rule="evenodd"/><path d="M2253.54 305.189 2231.49 327.238" stroke="#FFCD2F" stroke-width="41.25" stroke-linecap="round" stroke-linejoin="round" stroke-miterlimit="10" fill="none" fill-rule="evenodd"/><path d="M2079.05 479.686 2057 501.735" stroke="#FFCD2F" stroke-width="41.25" stroke-linecap="round" stroke-linejoin="round" stroke-miterlimit="10" fill="none" fill-rule="evenodd"/><path d="M2057.66 305.864 2079.71 327.912" stroke="#FFCD2F" stroke-width="41.25" stroke-linecap="round" stroke-linejoin="round" stroke-miterlimit="10" fill="none" fill-rule="evenodd"/><path d="M2234.26 482.464 2256.31 504.513" stroke="#FFCD2F" stroke-width="41.25" stroke-linecap="round" stroke-linejoin="round" stroke-miterlimit="10" fill="none" fill-rule="evenodd"/><path d="M2228.11 710C2132.4 709.138 2061.71 710.187 1966 709.325L2093.46 535.667C2118.8 501.684 2156.37 450 2228.11 450 2299.85 450 2358 508.203 2358 580 2358 651.797 2299.85 710 2228.11 710Z" fill="#A0B8C8" fill-rule="evenodd"/><path d="M1785 529.5C1785 429.26 1866.48 348 1967 348 2067.52 348 2149 429.26 2149 529.5 2149 629.74 2067.52 711 1967 711 1866.48 711 1785 629.74 1785 529.5Z" fill="#C6D4DE" fill-rule="evenodd"/></g></svg>