<svg width="649" height="649" xmlns="http://www.w3.org/2000/svg" xmlns:xlink="http://www.w3.org/1999/xlink" xml:space="preserve" overflow="hidden"><g transform="translate(-3738 -99)"><path d="M4076 266C4076 224.579 4109.58 191 4151 191 4192.42 191 4226 224.579 4226 266 4226 307.421 4192.42 341 4151 341 4109.58 341 4076 307.421 4076 266Z" fill="#FFCD2F" fill-rule="evenodd"/><path d="M4150.5 128.5 4150.5 159.681" stroke="#FFCD2F" stroke-width="41.25" stroke-linecap="round" stroke-linejoin="round" stroke-miterlimit="10" fill="none" fill-rule="evenodd"/><path d="M4150.5 377.5 4150.5 408.681" stroke="#FFCD2F" stroke-width="41.25" stroke-linecap="round" stroke-linejoin="round" stroke-miterlimit="10" fill="none" fill-rule="evenodd"/><path d="M4291.68 266.5 4260.5 266.5" stroke="#FFCD2F" stroke-width="41.25" stroke-linecap="round" stroke-linejoin="round" stroke-miterlimit="10" fill="none" fill-rule="evenodd"/><path d="M4045.68 266.5 4014.5 266.5" stroke="#FFCD2F" stroke-width="41.25" stroke-linecap="round" stroke-linejoin="round" stroke-miterlimit="10" fill="none" fill-rule="evenodd"/><path d="M4245.91 167.334 4223.86 189.383" stroke="#FFCD2F" stroke-width="41.25" stroke-linecap="round" stroke-linejoin="round" stroke-miterlimit="10" fill="none" fill-rule="evenodd"/><path d="M4071.41 341.831 4049.36 363.88" stroke="#FFCD2F" stroke-width="41.25" stroke-linecap="round" stroke-linejoin="round" stroke-miterlimit="10" fill="none" fill-rule="evenodd"/><path d="M4050.03 168.008 4072.08 190.057" stroke="#FFCD2F" stroke-width="41.25" stroke-linecap="round" stroke-linejoin="round" stroke-miterlimit="10" fill="none" fill-rule="evenodd"/><path d="M4226.63 344.609 4248.68 366.657" stroke="#FFCD2F" stroke-width="41.25" stroke-linecap="round" stroke-linejoin="round" stroke-miterlimit="10" fill="none" fill-rule="evenodd"/><path d="M4220.11 571C4124.4 570.138 4053.71 571.187 3958 570.325L4085.46 396.667C4110.8 362.684 4148.37 311 4220.11 311 4291.85 311 4350 369.203 4350 441 4350 512.797 4291.85 571 4220.11 571Z" fill="#A0B8C8" fill-rule="evenodd"/><path d="M3778 390C3778 289.484 3859.26 208 3959.5 208 4059.74 208 4141 289.484 4141 390 4141 490.516 4059.74 572 3959.5 572 3859.26 572 3778 490.516 3778 390Z" fill="#C6D4DE" fill-rule="evenodd"/><path d="M4166 570.5C4166 554.76 4178.76 542 4194.5 542 4210.24 542 4223 554.76 4223 570.5 4223 586.24 4210.24 599 4194.5 599 4178.76 599 4166 586.24 4166 570.5Z" stroke="#EDF3FB" stroke-width="45.8333" stroke-linecap="round" stroke-linejoin="round" stroke-miterlimit="10" fill="#EDF3FB" fill-rule="evenodd"/><path d="M4056 681.5C4056 665.76 4068.76 653 4084.5 653 4100.24 653 4113 665.76 4113 681.5 4113 697.24 4100.24 710 4084.5 710 4068.76 710 4056 697.24 4056 681.5Z" stroke="#EDF3FB" stroke-width="45.8333" stroke-linecap="round" stroke-linejoin="round" stroke-miterlimit="10" fill="#EDF3FB" fill-rule="evenodd"/><path d="M3899 593.5C3899 577.76 3911.76 565 3927.5 565 3943.24 565 3956 577.76 3956 593.5 3956 609.24 3943.24 622 3927.5 622 3911.76 622 3899 609.24 3899 593.5Z" stroke="#EDF3FB" stroke-width="45.8333" stroke-linecap="round" stroke-linejoin="round" stroke-miterlimit="10" fill="#EDF3FB" fill-rule="evenodd"/></g></svg>