<svg width="649" height="650" xmlns="http://www.w3.org/2000/svg" xmlns:xlink="http://www.w3.org/1999/xlink" xml:space="preserve" overflow="hidden"><g transform="translate(-2284 -111)"><path d="M2620 279.5C2620 238.355 2653.35 205 2694.5 205 2735.65 205 2769 238.355 2769 279.5 2769 320.645 2735.65 354 2694.5 354 2653.35 354 2620 320.645 2620 279.5Z" fill="#FFCD2F" fill-rule="evenodd"/><path d="M2693.5 141.5 2693.5 172.681" stroke="#FFCD2F" stroke-width="41.25" stroke-linecap="round" stroke-linejoin="round" stroke-miterlimit="10" fill="none" fill-rule="evenodd"/><path d="M2693.5 390.5 2693.5 421.681" stroke="#FFCD2F" stroke-width="41.25" stroke-linecap="round" stroke-linejoin="round" stroke-miterlimit="10" fill="none" fill-rule="evenodd"/><path d="M2835.68 279.5 2804.5 279.5" stroke="#FFCD2F" stroke-width="41.25" stroke-linecap="round" stroke-linejoin="round" stroke-miterlimit="10" fill="none" fill-rule="evenodd"/><path d="M2588.68 279.5 2557.5 279.5" stroke="#FFCD2F" stroke-width="41.25" stroke-linecap="round" stroke-linejoin="round" stroke-miterlimit="10" fill="none" fill-rule="evenodd"/><path d="M2789.53 180.444 2767.49 202.492" stroke="#FFCD2F" stroke-width="41.25" stroke-linecap="round" stroke-linejoin="round" stroke-miterlimit="10" fill="none" fill-rule="evenodd"/><path d="M2615.04 354.941 2592.99 376.989" stroke="#FFCD2F" stroke-width="41.25" stroke-linecap="round" stroke-linejoin="round" stroke-miterlimit="10" fill="none" fill-rule="evenodd"/><path d="M2593.65 181.118 2615.7 203.166" stroke="#FFCD2F" stroke-width="41.25" stroke-linecap="round" stroke-linejoin="round" stroke-miterlimit="10" fill="none" fill-rule="evenodd"/><path d="M2770.26 357.719 2792.3 379.767" stroke="#FFCD2F" stroke-width="41.25" stroke-linecap="round" stroke-linejoin="round" stroke-miterlimit="10" fill="none" fill-rule="evenodd"/><path d="M2766.78 584C2670.82 583.138 2599.95 584.187 2504 583.325L2631.79 409.667C2657.19 375.684 2694.86 324 2766.78 324 2838.7 324 2897 382.203 2897 454 2897 525.797 2838.7 584 2766.78 584Z" fill="#A0B8C8" fill-rule="evenodd"/><path d="M2324 403C2324 302.484 2405.26 221 2505.5 221 2605.74 221 2687 302.484 2687 403 2687 503.516 2605.74 585 2505.5 585 2405.26 585 2324 503.516 2324 403Z" fill="#C6D4DE" fill-rule="evenodd"/><path d="M2635.5 699.119 2635.5 670.5" stroke="#EDF3FB" stroke-width="36.6667" stroke-linecap="round" stroke-linejoin="round" stroke-miterlimit="10" fill="none" fill-rule="evenodd"/><path d="M2635.5 698.5 2635.5 727.119" stroke="#EDF3FB" stroke-width="36.6667" stroke-linecap="round" stroke-linejoin="round" stroke-miterlimit="10" fill="none" fill-rule="evenodd"/><path d="M2635.59 699.107 2661.91 683.908" stroke="#EDF3FB" stroke-width="36.6667" stroke-linecap="round" stroke-linejoin="round" stroke-miterlimit="10" fill="none" fill-rule="evenodd"/><path d="M2635.37 698.149 2609.04 713.349" stroke="#EDF3FB" stroke-width="36.6667" stroke-linecap="round" stroke-linejoin="round" stroke-miterlimit="10" fill="none" fill-rule="evenodd"/><path d="M2634.74 698.115 2661.07 713.314" stroke="#EDF3FB" stroke-width="36.6667" stroke-linecap="round" stroke-linejoin="round" stroke-miterlimit="10" fill="none" fill-rule="evenodd"/><path d="M2635.21 699.073 2608.88 683.874" stroke="#EDF3FB" stroke-width="36.6667" stroke-linecap="round" stroke-linejoin="round" stroke-miterlimit="10" fill="none" fill-rule="evenodd"/><path d="M2475.5 610.119 2475.5 581.5" stroke="#EDF3FB" stroke-width="36.6667" stroke-linecap="round" stroke-linejoin="round" stroke-miterlimit="10" fill="none" fill-rule="evenodd"/><path d="M2475.5 610.5 2475.5 639.119" stroke="#EDF3FB" stroke-width="36.6667" stroke-linecap="round" stroke-linejoin="round" stroke-miterlimit="10" fill="none" fill-rule="evenodd"/><path d="M2475.58 610.78 2501.9 595.581" stroke="#EDF3FB" stroke-width="36.6667" stroke-linecap="round" stroke-linejoin="round" stroke-miterlimit="10" fill="none" fill-rule="evenodd"/><path d="M2475.36 609.823 2449.03 625.022" stroke="#EDF3FB" stroke-width="36.6667" stroke-linecap="round" stroke-linejoin="round" stroke-miterlimit="10" fill="none" fill-rule="evenodd"/><path d="M2474.73 609.789 2501.05 624.987" stroke="#EDF3FB" stroke-width="36.6667" stroke-linecap="round" stroke-linejoin="round" stroke-miterlimit="10" fill="none" fill-rule="evenodd"/><path d="M2475.2 610.746 2448.87 595.547" stroke="#EDF3FB" stroke-width="36.6667" stroke-linecap="round" stroke-linejoin="round" stroke-miterlimit="10" fill="none" fill-rule="evenodd"/><path d="M2743.5 584.119 2743.5 555.5" stroke="#EDF3FB" stroke-width="36.6667" stroke-linecap="round" stroke-linejoin="round" stroke-miterlimit="10" fill="none" fill-rule="evenodd"/><path d="M2743.5 583.5 2743.5 612.119" stroke="#EDF3FB" stroke-width="36.6667" stroke-linecap="round" stroke-linejoin="round" stroke-miterlimit="10" fill="none" fill-rule="evenodd"/><path d="M2743.28 584.236 2769.6 569.037" stroke="#EDF3FB" stroke-width="36.6667" stroke-linecap="round" stroke-linejoin="round" stroke-miterlimit="10" fill="none" fill-rule="evenodd"/><path d="M2743.06 583.279 2716.73 598.478" stroke="#EDF3FB" stroke-width="36.6667" stroke-linecap="round" stroke-linejoin="round" stroke-miterlimit="10" fill="none" fill-rule="evenodd"/><path d="M2742.43 583.245 2768.76 598.443" stroke="#EDF3FB" stroke-width="36.6667" stroke-linecap="round" stroke-linejoin="round" stroke-miterlimit="10" fill="none" fill-rule="evenodd"/><path d="M2742.9 584.202 2716.57 569.003" stroke="#EDF3FB" stroke-width="36.6667" stroke-linecap="round" stroke-linejoin="round" stroke-miterlimit="10" fill="none" fill-rule="evenodd"/></g></svg>