<svg width="649" height="650" xmlns="http://www.w3.org/2000/svg" xmlns:xlink="http://www.w3.org/1999/xlink" xml:space="preserve" overflow="hidden"><g transform="translate(-3316 -157)"><path d="M3654 323C3654 281.579 3687.58 248 3729 248 3770.42 248 3804 281.579 3804 323 3804 364.421 3770.42 398 3729 398 3687.58 398 3654 364.421 3654 323Z" fill="#FFCD2F" fill-rule="evenodd"/><path d="M3728.5 184.5 3728.5 215.681" stroke="#FFCD2F" stroke-width="41.25" stroke-linecap="round" stroke-linejoin="round" stroke-miterlimit="10" fill="none" fill-rule="evenodd"/><path d="M3728.5 434.5 3728.5 465.681" stroke="#FFCD2F" stroke-width="41.25" stroke-linecap="round" stroke-linejoin="round" stroke-miterlimit="10" fill="none" fill-rule="evenodd"/><path d="M3869.68 323.5 3838.5 323.5" stroke="#FFCD2F" stroke-width="41.25" stroke-linecap="round" stroke-linejoin="round" stroke-miterlimit="10" fill="none" fill-rule="evenodd"/><path d="M3623.68 323.5 3592.5 323.5" stroke="#FFCD2F" stroke-width="41.25" stroke-linecap="round" stroke-linejoin="round" stroke-miterlimit="10" fill="none" fill-rule="evenodd"/><path d="M3824.19 223.897 3802.14 245.946" stroke="#FFCD2F" stroke-width="41.25" stroke-linecap="round" stroke-linejoin="round" stroke-miterlimit="10" fill="none" fill-rule="evenodd"/><path d="M3649.7 398.394 3627.65 420.442" stroke="#FFCD2F" stroke-width="41.25" stroke-linecap="round" stroke-linejoin="round" stroke-miterlimit="10" fill="none" fill-rule="evenodd"/><path d="M3628.31 224.571 3650.36 246.619" stroke="#FFCD2F" stroke-width="41.25" stroke-linecap="round" stroke-linejoin="round" stroke-miterlimit="10" fill="none" fill-rule="evenodd"/><path d="M3804.91 401.172 3826.96 423.22" stroke="#FFCD2F" stroke-width="41.25" stroke-linecap="round" stroke-linejoin="round" stroke-miterlimit="10" fill="none" fill-rule="evenodd"/><path d="M3799.11 630C3703.4 629.138 3632.71 630.187 3537 629.325L3664.46 455.667C3689.8 421.683 3727.37 370 3799.11 370 3870.85 370 3929 428.203 3929 500 3929 571.797 3870.85 630 3799.11 630Z" fill="#A0B8C8" fill-rule="evenodd"/><path d="M3356 449C3356 348.484 3437.48 267 3538 267 3638.52 267 3720 348.484 3720 449 3720 549.516 3638.52 631 3538 631 3437.48 631 3356 549.516 3356 449Z" fill="#C6D4DE" fill-rule="evenodd"/><path d="M0 0 68.5598 67.4053" stroke="#195FAB" stroke-width="55" stroke-linecap="round" stroke-linejoin="round" stroke-miterlimit="10" fill="none" fill-rule="evenodd" transform="matrix(-1 0 0 1 3514.06 631.5)"/><path d="M0 0 116.206 116.072" stroke="#5B9EE7" stroke-width="55" stroke-linecap="round" stroke-linejoin="round" stroke-miterlimit="10" fill="none" fill-rule="evenodd" transform="matrix(-1 0 0 1 3663.71 605.5)"/><path d="M0 0 67.6128 67.611" stroke="#195FAB" stroke-width="55" stroke-linecap="round" stroke-linejoin="round" stroke-miterlimit="10" fill="none" fill-rule="evenodd" transform="matrix(-1 0 0 1 3698.11 698.5)"/><path d="M0 0 69.2657 69.6634" stroke="#195FAB" stroke-width="55" stroke-linecap="round" stroke-linejoin="round" stroke-miterlimit="10" fill="none" fill-rule="evenodd" transform="matrix(-1 0 0 1 3834.77 678.5)"/><path d="M0 0 10.3125 10.3125" stroke="#5B9EE7" stroke-width="55" stroke-linecap="round" stroke-linejoin="round" stroke-miterlimit="10" fill="none" fill-rule="evenodd" transform="matrix(-1 0 0 1 3754.81 641.5)"/></g></svg>