<svg width="649" height="650" xmlns="http://www.w3.org/2000/svg" xmlns:xlink="http://www.w3.org/1999/xlink" xml:space="preserve" overflow="hidden"><g transform="translate(-3320 -996)"><path d="M3723.56 1017 3719.72 1024.06C3712.31 1041.51 3708.22 1060.7 3708.22 1080.84 3708.22 1161.42 3773.73 1226.73 3854.53 1226.73L3883 1223.87 3877.36 1242C3852.68 1300.18 3794.9 1341 3727.57 1341 3637.78 1341 3565 1268.43 3565 1178.9 3565 1094.97 3628.97 1025.94 3710.95 1017.64Z" fill="#DAE7F7" fill-rule="evenodd"/><path d="M3803.11 1468C3707.4 1467.14 3636.71 1468.19 3541 1467.33L3668.46 1294.34C3693.8 1260.48 3731.37 1209 3803.11 1209 3874.85 1209 3933 1266.98 3933 1338.5 3933 1410.02 3874.85 1468 3803.11 1468Z" fill="#7A9BB2" fill-rule="evenodd"/><path d="M3360 1288C3360 1187.48 3441.48 1106 3542 1106 3642.52 1106 3724 1187.48 3724 1288 3724 1388.52 3642.52 1470 3542 1470 3441.48 1470 3360 1388.52 3360 1288Z" fill="#AFC3D1" fill-rule="evenodd"/><path d="M0 0 68.5598 67.4053" stroke="#195FAB" stroke-width="55" stroke-linecap="round" stroke-linejoin="round" stroke-miterlimit="10" fill="none" fill-rule="evenodd" transform="matrix(-1 0 0 1 3518.06 1470.5)"/><path d="M0 0 116.206 116.072" stroke="#5B9EE7" stroke-width="55" stroke-linecap="round" stroke-linejoin="round" stroke-miterlimit="10" fill="none" fill-rule="evenodd" transform="matrix(-1 0 0 1 3667.71 1444.5)"/><path d="M0 0 67.6128 67.611" stroke="#195FAB" stroke-width="55" stroke-linecap="round" stroke-linejoin="round" stroke-miterlimit="10" fill="none" fill-rule="evenodd" transform="matrix(-1 0 0 1 3702.11 1537.5)"/><path d="M0 0 69.2657 69.6634" stroke="#195FAB" stroke-width="55" stroke-linecap="round" stroke-linejoin="round" stroke-miterlimit="10" fill="none" fill-rule="evenodd" transform="matrix(-1 0 0 1 3839.77 1517.5)"/><path d="M0 0 10.3125 10.3125" stroke="#5B9EE7" stroke-width="55" stroke-linecap="round" stroke-linejoin="round" stroke-miterlimit="10" fill="none" fill-rule="evenodd" transform="matrix(-1 0 0 1 3758.81 1480.5)"/></g></svg>