<svg width="649" height="649" xmlns="http://www.w3.org/2000/svg" xmlns:xlink="http://www.w3.org/1999/xlink" xml:space="preserve" overflow="hidden"><g transform="translate(-2281 -866)"><path d="M2673.56 883 2669.72 890.079C2662.31 907.587 2658.22 926.836 2658.22 947.041 2658.22 1027.86 2723.73 1093.38 2804.53 1093.38L2833 1090.51 2827.36 1108.69C2802.68 1167.05 2744.9 1208 2677.57 1208 2587.78 1208 2515 1135.2 2515 1045.4 2515 961.209 2578.97 891.964 2660.94 883.637Z" fill="#DAE7F7" fill-rule="evenodd"/><path d="M2763.11 1339C2667.4 1338.14 2596.71 1339.19 2501 1338.32L2628.46 1164.67C2653.8 1130.68 2691.37 1079 2763.11 1079 2834.85 1079 2893 1137.2 2893 1209 2893 1280.8 2834.85 1339 2763.11 1339Z" fill="#7A9BB2" fill-rule="evenodd"/><path d="M2320 1159C2320 1058.48 2401.48 977 2502 977 2602.52 977 2684 1058.48 2684 1159 2684 1259.52 2602.52 1341 2502 1341 2401.48 1341 2320 1259.52 2320 1159Z" fill="#AFC3D1" fill-rule="evenodd"/><path d="M2632.5 1453.12 2632.5 1424.5" stroke="#EDF3FB" stroke-width="36.6667" stroke-linecap="round" stroke-linejoin="round" stroke-miterlimit="10" fill="none" fill-rule="evenodd"/><path d="M2632.5 1453.5 2632.5 1482.12" stroke="#EDF3FB" stroke-width="36.6667" stroke-linecap="round" stroke-linejoin="round" stroke-miterlimit="10" fill="none" fill-rule="evenodd"/><path d="M2632.45 1453.61 2658.78 1438.41" stroke="#EDF3FB" stroke-width="36.6667" stroke-linecap="round" stroke-linejoin="round" stroke-miterlimit="10" fill="none" fill-rule="evenodd"/><path d="M2632.23 1452.65 2605.91 1467.85" stroke="#EDF3FB" stroke-width="36.6667" stroke-linecap="round" stroke-linejoin="round" stroke-miterlimit="10" fill="none" fill-rule="evenodd"/><path d="M2631.61 1452.62 2657.93 1467.82" stroke="#EDF3FB" stroke-width="36.6667" stroke-linecap="round" stroke-linejoin="round" stroke-miterlimit="10" fill="none" fill-rule="evenodd"/><path d="M2632.08 1453.57 2605.75 1438.38" stroke="#EDF3FB" stroke-width="36.6667" stroke-linecap="round" stroke-linejoin="round" stroke-miterlimit="10" fill="none" fill-rule="evenodd"/><path d="M2472.5 1365.12 2472.5 1336.5" stroke="#EDF3FB" stroke-width="36.6667" stroke-linecap="round" stroke-linejoin="round" stroke-miterlimit="10" fill="none" fill-rule="evenodd"/><path d="M2472.5 1364.5 2472.5 1393.12" stroke="#EDF3FB" stroke-width="36.6667" stroke-linecap="round" stroke-linejoin="round" stroke-miterlimit="10" fill="none" fill-rule="evenodd"/><path d="M2472.44 1365.28 2498.77 1350.08" stroke="#EDF3FB" stroke-width="36.6667" stroke-linecap="round" stroke-linejoin="round" stroke-miterlimit="10" fill="none" fill-rule="evenodd"/><path d="M2472.22 1364.32 2445.9 1379.52" stroke="#EDF3FB" stroke-width="36.6667" stroke-linecap="round" stroke-linejoin="round" stroke-miterlimit="10" fill="none" fill-rule="evenodd"/><path d="M2471.6 1364.29 2497.92 1379.49" stroke="#EDF3FB" stroke-width="36.6667" stroke-linecap="round" stroke-linejoin="round" stroke-miterlimit="10" fill="none" fill-rule="evenodd"/><path d="M2472.06 1365.25 2445.74 1350.05" stroke="#EDF3FB" stroke-width="36.6667" stroke-linecap="round" stroke-linejoin="round" stroke-miterlimit="10" fill="none" fill-rule="evenodd"/><path d="M2740.5 1338.12 2740.5 1309.5" stroke="#EDF3FB" stroke-width="36.6667" stroke-linecap="round" stroke-linejoin="round" stroke-miterlimit="10" fill="none" fill-rule="evenodd"/><path d="M2740.5 1338.5 2740.5 1367.12" stroke="#EDF3FB" stroke-width="36.6667" stroke-linecap="round" stroke-linejoin="round" stroke-miterlimit="10" fill="none" fill-rule="evenodd"/><path d="M2740.14 1338.74 2766.47 1323.54" stroke="#EDF3FB" stroke-width="36.6667" stroke-linecap="round" stroke-linejoin="round" stroke-miterlimit="10" fill="none" fill-rule="evenodd"/><path d="M2739.92 1337.78 2713.6 1352.98" stroke="#EDF3FB" stroke-width="36.6667" stroke-linecap="round" stroke-linejoin="round" stroke-miterlimit="10" fill="none" fill-rule="evenodd"/><path d="M2739.3 1337.75 2765.62 1352.94" stroke="#EDF3FB" stroke-width="36.6667" stroke-linecap="round" stroke-linejoin="round" stroke-miterlimit="10" fill="none" fill-rule="evenodd"/><path d="M2739.76 1338.7 2713.44 1323.5" stroke="#EDF3FB" stroke-width="36.6667" stroke-linecap="round" stroke-linejoin="round" stroke-miterlimit="10" fill="none" fill-rule="evenodd"/></g></svg>