<svg width="650" height="650" xmlns="http://www.w3.org/2000/svg" xmlns:xlink="http://www.w3.org/1999/xlink" xml:space="preserve" overflow="hidden"><g transform="translate(-767 -855)"><path d="M1154.56 869 1150.72 876.079C1143.32 893.587 1139.22 912.836 1139.22 933.041 1139.22 1013.86 1204.73 1079.38 1285.53 1079.38L1314 1076.51 1308.36 1094.69C1283.68 1153.05 1225.9 1194 1158.57 1194 1068.78 1194 996 1121.2 996 1031.4 996 947.209 1059.97 877.964 1141.95 869.637Z" fill="#DAE7F7" fill-rule="evenodd"/><path d="M1249.11 1327C1153.4 1326.14 1082.71 1327.19 987 1326.32L1114.46 1152.67C1139.8 1118.68 1177.37 1067 1249.11 1067 1320.85 1067 1379 1125.2 1379 1197 1379 1268.8 1320.85 1327 1249.11 1327Z" fill="#7A9BB2" fill-rule="evenodd"/><path d="M807 1147C807 1046.48 888.26 965 988.5 965 1088.74 965 1170 1046.48 1170 1147 1170 1247.52 1088.74 1329 988.5 1329 888.26 1329 807 1247.52 807 1147Z" fill="#AFC3D1" fill-rule="evenodd"/><path d="M1216.5 1447.8 1216.5 1418.5" stroke="#EDF3FB" stroke-width="36.6667" stroke-linecap="round" stroke-linejoin="round" stroke-miterlimit="10" fill="none" fill-rule="evenodd"/><path d="M1216.5 1448.5 1216.5 1477.8" stroke="#EDF3FB" stroke-width="36.6667" stroke-linecap="round" stroke-linejoin="round" stroke-miterlimit="10" fill="none" fill-rule="evenodd"/><path d="M1216.89 1448.7 1243.84 1433.14" stroke="#EDF3FB" stroke-width="36.6667" stroke-linecap="round" stroke-linejoin="round" stroke-miterlimit="10" fill="none" fill-rule="evenodd"/><path d="M1216.66 1447.72 1189.71 1463.28" stroke="#EDF3FB" stroke-width="36.6667" stroke-linecap="round" stroke-linejoin="round" stroke-miterlimit="10" fill="none" fill-rule="evenodd"/><path d="M1216.02 1447.68 1242.97 1463.25" stroke="#EDF3FB" stroke-width="36.6667" stroke-linecap="round" stroke-linejoin="round" stroke-miterlimit="10" fill="none" fill-rule="evenodd"/><path d="M1216.5 1448.67 1189.55 1433.1" stroke="#EDF3FB" stroke-width="36.6667" stroke-linecap="round" stroke-linejoin="round" stroke-miterlimit="10" fill="none" fill-rule="evenodd"/><path d="M1090.5 1327.8 1090.5 1298.5" stroke="#EDF3FB" stroke-width="36.6667" stroke-linecap="round" stroke-linejoin="round" stroke-miterlimit="10" fill="none" fill-rule="evenodd"/><path d="M1090.5 1327.5 1090.5 1356.8" stroke="#EDF3FB" stroke-width="36.6667" stroke-linecap="round" stroke-linejoin="round" stroke-miterlimit="10" fill="none" fill-rule="evenodd"/><path d="M1090.34 1328.28 1117.29 1312.72" stroke="#EDF3FB" stroke-width="36.6667" stroke-linecap="round" stroke-linejoin="round" stroke-miterlimit="10" fill="none" fill-rule="evenodd"/><path d="M1090.12 1327.3 1063.16 1342.87" stroke="#EDF3FB" stroke-width="36.6667" stroke-linecap="round" stroke-linejoin="round" stroke-miterlimit="10" fill="none" fill-rule="evenodd"/><path d="M1089.47 1327.27 1116.43 1342.83" stroke="#EDF3FB" stroke-width="36.6667" stroke-linecap="round" stroke-linejoin="round" stroke-miterlimit="10" fill="none" fill-rule="evenodd"/><path d="M1089.95 1328.25 1063 1312.69" stroke="#EDF3FB" stroke-width="36.6667" stroke-linecap="round" stroke-linejoin="round" stroke-miterlimit="10" fill="none" fill-rule="evenodd"/><path d="M0 0 68.5598 67.4057" stroke="#195FAB" stroke-width="55" stroke-linecap="round" stroke-linejoin="round" stroke-miterlimit="10" fill="none" fill-rule="evenodd" transform="matrix(-1 0 0 1 965.06 1328.5)"/><path d="M0 0 22.9538 23.0636" stroke="#5B9EE7" stroke-width="55" stroke-linecap="round" stroke-linejoin="round" stroke-miterlimit="10" fill="none" fill-rule="evenodd" transform="matrix(-1 0 0 1 1021.45 1395.5)"/><path d="M0 0 67.6125 67.6117" stroke="#195FAB" stroke-width="55" stroke-linecap="round" stroke-linejoin="round" stroke-miterlimit="10" fill="none" fill-rule="evenodd" transform="matrix(-1 0 0 1 1149.11 1395.5)"/><path d="M0 0 12.0859 13.4801" stroke="#195FAB" stroke-width="55" stroke-linecap="round" stroke-linejoin="round" stroke-miterlimit="10" fill="none" fill-rule="evenodd" transform="matrix(-1 0 0 1 1286.59 1375.5)"/><path d="M0 0 10.3125 10.3125" stroke="#5B9EE7" stroke-width="55" stroke-linecap="round" stroke-linejoin="round" stroke-miterlimit="10" fill="none" fill-rule="evenodd" transform="matrix(-1 0 0 1 1206.81 1338.5)"/></g></svg>