<svg width="649" height="649" xmlns="http://www.w3.org/2000/svg" xmlns:xlink="http://www.w3.org/1999/xlink" xml:space="preserve" overflow="hidden"><g transform="translate(-1746 -1007)"><path d="M2145.06 1100 2141.23 1107.08C2133.85 1124.59 2129.77 1143.84 2129.77 1164.04 2129.77 1244.86 2195.07 1310.38 2275.62 1310.38L2304 1307.51 2298.38 1325.69C2273.77 1384.05 2216.18 1425 2149.06 1425 2059.55 1425 1987 1352.2 1987 1262.4 1987 1178.21 2050.77 1108.96 2132.49 1100.64Z" fill="#DAE7F7" fill-rule="evenodd"/><path d="M2227.11 1552C2131.4 1551.14 2060.71 1552.19 1965 1551.32L2092.46 1377.67C2117.8 1343.68 2155.37 1292 2227.11 1292 2298.85 1292 2357 1350.2 2357 1422 2357 1493.8 2298.85 1552 2227.11 1552Z" fill="#7A9BB2" fill-rule="evenodd"/><path d="M1784 1371.5C1784 1271.26 1865.48 1190 1966 1190 2066.52 1190 2148 1271.26 2148 1371.5 2148 1471.74 2066.52 1553 1966 1553 1865.48 1553 1784 1471.74 1784 1371.5Z" fill="#AFC3D1" fill-rule="evenodd"/></g></svg>