<svg width="650" height="649" xmlns="http://www.w3.org/2000/svg" xmlns:xlink="http://www.w3.org/1999/xlink" overflow="hidden"><defs><clipPath id="clip0"><rect x="1517" y="1602" width="650" height="649"/></clipPath></defs><g clip-path="url(#clip0)" transform="translate(-1517 -1602)"><path d="M2000.11 2038C1904.4 2037.14 1833.71 2038.19 1738 2037.32L1865.46 1863.67C1890.8 1829.68 1928.37 1778 2000.11 1778 2071.85 1778 2130 1836.2 2130 1908 2130 1979.8 2071.85 2038 2000.11 2038Z" fill="#A0B8C8" fill-rule="evenodd"/><path d="M1558 1858C1558 1757.48 1639.26 1676 1739.5 1676 1839.74 1676 1921 1757.48 1921 1858 1921 1958.52 1839.74 2040 1739.5 2040 1639.26 2040 1558 1958.52 1558 1858Z" fill="#C6D4DE" fill-rule="evenodd"/><path d="M1708.5 2064.12 1708.5 2035.5" stroke="#EDF3FB" stroke-width="36.6667" stroke-linecap="round" stroke-linejoin="round" stroke-miterlimit="10" fill="none" fill-rule="evenodd"/><path d="M1708.5 2063.5 1708.5 2092.12" stroke="#EDF3FB" stroke-width="36.6667" stroke-linecap="round" stroke-linejoin="round" stroke-miterlimit="10" fill="none" fill-rule="evenodd"/><path d="M1708.38 2064.48 1734.71 2049.28" stroke="#EDF3FB" stroke-width="36.6667" stroke-linecap="round" stroke-linejoin="round" stroke-miterlimit="10" fill="none" fill-rule="evenodd"/><path d="M1708.16 2063.52 1681.84 2078.72" stroke="#EDF3FB" stroke-width="36.6667" stroke-linecap="round" stroke-linejoin="round" stroke-miterlimit="10" fill="none" fill-rule="evenodd"/><path d="M1707.53 2063.49 1733.86 2078.69" stroke="#EDF3FB" stroke-width="36.6667" stroke-linecap="round" stroke-linejoin="round" stroke-miterlimit="10" fill="none" fill-rule="evenodd"/><path d="M1708 2064.45 1681.68 2049.25" stroke="#EDF3FB" stroke-width="36.6667" stroke-linecap="round" stroke-linejoin="round" stroke-miterlimit="10" fill="none" fill-rule="evenodd"/><path d="M1975.5 2037.12 1975.5 2008.5" stroke="#EDF3FB" stroke-width="36.6667" stroke-linecap="round" stroke-linejoin="round" stroke-miterlimit="10" fill="none" fill-rule="evenodd"/><path d="M1975.5 2037.5 1975.5 2066.12" stroke="#EDF3FB" stroke-width="36.6667" stroke-linecap="round" stroke-linejoin="round" stroke-miterlimit="10" fill="none" fill-rule="evenodd"/><path d="M1976.08 2037.94 2002.41 2022.74" stroke="#EDF3FB" stroke-width="36.6667" stroke-linecap="round" stroke-linejoin="round" stroke-miterlimit="10" fill="none" fill-rule="evenodd"/><path d="M1975.86 2036.98 1949.54 2052.18" stroke="#EDF3FB" stroke-width="36.6667" stroke-linecap="round" stroke-linejoin="round" stroke-miterlimit="10" fill="none" fill-rule="evenodd"/><path d="M1975.23 2036.95 2001.56 2052.14" stroke="#EDF3FB" stroke-width="36.6667" stroke-linecap="round" stroke-linejoin="round" stroke-miterlimit="10" fill="none" fill-rule="evenodd"/><path d="M1975.7 2037.9 1949.38 2022.7" stroke="#EDF3FB" stroke-width="36.6667" stroke-linecap="round" stroke-linejoin="round" stroke-miterlimit="10" fill="none" fill-rule="evenodd"/><path d="M0 0 51.7379 129.343" stroke="#FFFF00" stroke-width="55" stroke-linecap="round" stroke-linejoin="round" stroke-miterlimit="10" fill="none" fill-rule="evenodd" transform="matrix(-1 0 0 1 1866.24 1891.5)"/><path d="M0 0 51.7379 129.343" stroke="#FFFF00" stroke-width="55" stroke-linecap="round" stroke-linejoin="round" stroke-miterlimit="10" fill="none" fill-rule="evenodd" transform="matrix(-1 0 0 1 1870.24 2021.5)"/><path d="M1869.43 2022.5 1814.5 2022.5" stroke="#FFFF00" stroke-width="55" stroke-linecap="round" stroke-linejoin="round" stroke-miterlimit="10" fill="none" fill-rule="evenodd"/></g></svg>