<svg width="650" height="650" xmlns="http://www.w3.org/2000/svg" xmlns:xlink="http://www.w3.org/1999/xlink" overflow="hidden"><defs><clipPath id="clip0"><rect x="771" y="1601" width="650" height="650"/></clipPath></defs><g clip-path="url(#clip0)" transform="translate(-771 -1601)"><path d="M1254.11 2032C1158.4 2031.14 1087.71 2032.19 992 2031.32L1119.46 1857.67C1144.8 1823.68 1182.37 1772 1254.11 1772 1325.85 1772 1384 1830.2 1384 1902 1384 1973.8 1325.85 2032 1254.11 2032Z" fill="#7A9BB2" fill-rule="evenodd"/><path d="M811 1852C811 1751.48 892.484 1670 993 1670 1093.52 1670 1175 1751.48 1175 1852 1175 1952.52 1093.52 2034 993 2034 892.484 2034 811 1952.52 811 1852Z" fill="#AFC3D1" fill-rule="evenodd"/><path d="M1221.5 2151.8 1221.5 2122.5" stroke="#EDF3FB" stroke-width="36.6667" stroke-linecap="round" stroke-linejoin="round" stroke-miterlimit="10" fill="none" fill-rule="evenodd"/><path d="M1221.5 2151.5 1221.5 2180.8" stroke="#EDF3FB" stroke-width="36.6667" stroke-linecap="round" stroke-linejoin="round" stroke-miterlimit="10" fill="none" fill-rule="evenodd"/><path d="M1222.06 2151.77 1249.01 2136.21" stroke="#EDF3FB" stroke-width="36.6667" stroke-linecap="round" stroke-linejoin="round" stroke-miterlimit="10" fill="none" fill-rule="evenodd"/><path d="M1221.83 2150.79 1194.88 2166.35" stroke="#EDF3FB" stroke-width="36.6667" stroke-linecap="round" stroke-linejoin="round" stroke-miterlimit="10" fill="none" fill-rule="evenodd"/><path d="M1221.19 2150.76 1248.15 2166.32" stroke="#EDF3FB" stroke-width="36.6667" stroke-linecap="round" stroke-linejoin="round" stroke-miterlimit="10" fill="none" fill-rule="evenodd"/><path d="M1221.67 2151.74 1194.72 2136.18" stroke="#EDF3FB" stroke-width="36.6667" stroke-linecap="round" stroke-linejoin="round" stroke-miterlimit="10" fill="none" fill-rule="evenodd"/><path d="M0 0 68.5598 67.4057" stroke="#195FAB" stroke-width="55" stroke-linecap="round" stroke-linejoin="round" stroke-miterlimit="10" fill="none" fill-rule="evenodd" transform="matrix(-1 0 0 1 970.06 2031.5)"/><path d="M0 0 12.0859 13.4801" stroke="#195FAB" stroke-width="55" stroke-linecap="round" stroke-linejoin="round" stroke-miterlimit="10" fill="none" fill-rule="evenodd" transform="matrix(-1 0 0 1 1291.59 2078.5)"/><path d="M0 0 10.3125 10.3125" stroke="#5B9EE7" stroke-width="55" stroke-linecap="round" stroke-linejoin="round" stroke-miterlimit="10" fill="none" fill-rule="evenodd" transform="matrix(-1 0 0 1 1211.81 2041.5)"/><path d="M0 0 51.7379 129.343" stroke="#FFFF00" stroke-width="55" stroke-linecap="round" stroke-linejoin="round" stroke-miterlimit="10" fill="none" fill-rule="evenodd" transform="matrix(-1 0 0 1 1121.24 1884.5)"/><path d="M0 0 51.7379 129.343" stroke="#FFFF00" stroke-width="55" stroke-linecap="round" stroke-linejoin="round" stroke-miterlimit="10" fill="none" fill-rule="evenodd" transform="matrix(-1 0 0 1 1125.24 2014.5)"/><path d="M1124.42 2015.5 1069.5 2015.5" stroke="#FFFF00" stroke-width="55" stroke-linecap="round" stroke-linejoin="round" stroke-miterlimit="10" fill="none" fill-rule="evenodd"/></g></svg>