<svg width="650" height="650" xmlns="http://www.w3.org/2000/svg" xmlns:xlink="http://www.w3.org/1999/xlink" overflow="hidden"><defs><clipPath id="clip0"><rect x="952" y="1738" width="650" height="650"/></clipPath></defs><g clip-path="url(#clip0)" transform="translate(-952 -1738)"><path d="M1435.11 2190C1339.4 2189.14 1268.71 2190.19 1173 2189.32L1300.46 2015.67C1325.8 1981.68 1363.37 1930 1435.11 1930 1506.85 1930 1565 1988.2 1565 2060 1565 2131.8 1506.85 2190 1435.11 2190Z" fill="#A0B8C8" fill-rule="evenodd"/><path d="M992 2009C992 1908.48 1073.48 1827 1174 1827 1274.52 1827 1356 1908.48 1356 2009 1356 2109.52 1274.52 2191 1174 2191 1073.48 2191 992 2109.52 992 2009Z" fill="#C6D4DE" fill-rule="evenodd"/><path d="M0 0 51.7379 129.343" stroke="#FFFF00" stroke-width="55" stroke-linecap="round" stroke-linejoin="round" stroke-miterlimit="10" fill="none" fill-rule="evenodd" transform="matrix(-1 0 0 1 1301.24 2043.5)"/><path d="M0 0 51.7379 129.343" stroke="#FFFF00" stroke-width="55" stroke-linecap="round" stroke-linejoin="round" stroke-miterlimit="10" fill="none" fill-rule="evenodd" transform="matrix(-1 0 0 1 1305.24 2173.5)"/><path d="M1304.42 2174.5 1249.5 2174.5" stroke="#FFFF00" stroke-width="55" stroke-linecap="round" stroke-linejoin="round" stroke-miterlimit="10" fill="none" fill-rule="evenodd"/></g></svg>