<svg width="649" height="650" xmlns="http://www.w3.org/2000/svg" xmlns:xlink="http://www.w3.org/1999/xlink" overflow="hidden"><defs><clipPath id="clip0"><rect x="2281" y="1602" width="649" height="650"/></clipPath></defs><g clip-path="url(#clip0)" transform="translate(-2281 -1602)"><path d="M2763.11 2039C2667.4 2038.14 2596.71 2039.19 2501 2038.33L2628.46 1864.67C2653.8 1830.68 2691.37 1779 2763.11 1779 2834.85 1779 2893 1837.2 2893 1909 2893 1980.8 2834.85 2039 2763.11 2039Z" fill="#7A9BB2" fill-rule="evenodd"/><path d="M2321 1858C2321 1757.48 2402.26 1676 2502.5 1676 2602.74 1676 2684 1757.48 2684 1858 2684 1958.52 2602.74 2040 2502.5 2040 2402.26 2040 2321 1958.52 2321 1858Z" fill="#AFC3D1" fill-rule="evenodd"/><path d="M2471.5 2064.12 2471.5 2035.5" stroke="#EDF3FB" stroke-width="36.6667" stroke-linecap="round" stroke-linejoin="round" stroke-miterlimit="10" fill="none" fill-rule="evenodd"/><path d="M2471.5 2064.5 2471.5 2093.12" stroke="#EDF3FB" stroke-width="36.6667" stroke-linecap="round" stroke-linejoin="round" stroke-miterlimit="10" fill="none" fill-rule="evenodd"/><path d="M2471.42 2064.81 2497.74 2049.61" stroke="#EDF3FB" stroke-width="36.6667" stroke-linecap="round" stroke-linejoin="round" stroke-miterlimit="10" fill="none" fill-rule="evenodd"/><path d="M2471.2 2063.85 2444.87 2079.05" stroke="#EDF3FB" stroke-width="36.6667" stroke-linecap="round" stroke-linejoin="round" stroke-miterlimit="10" fill="none" fill-rule="evenodd"/><path d="M2470.57 2063.81 2496.9 2079.01" stroke="#EDF3FB" stroke-width="36.6667" stroke-linecap="round" stroke-linejoin="round" stroke-miterlimit="10" fill="none" fill-rule="evenodd"/><path d="M2471.04 2064.77 2444.71 2049.57" stroke="#EDF3FB" stroke-width="36.6667" stroke-linecap="round" stroke-linejoin="round" stroke-miterlimit="10" fill="none" fill-rule="evenodd"/><path d="M2739.5 2038.12 2739.5 2009.5" stroke="#EDF3FB" stroke-width="36.6667" stroke-linecap="round" stroke-linejoin="round" stroke-miterlimit="10" fill="none" fill-rule="evenodd"/><path d="M2739.5 2037.5 2739.5 2066.12" stroke="#EDF3FB" stroke-width="36.6667" stroke-linecap="round" stroke-linejoin="round" stroke-miterlimit="10" fill="none" fill-rule="evenodd"/><path d="M2739.12 2038.26 2765.44 2023.06" stroke="#EDF3FB" stroke-width="36.6667" stroke-linecap="round" stroke-linejoin="round" stroke-miterlimit="10" fill="none" fill-rule="evenodd"/><path d="M2738.9 2037.3 2712.57 2052.5" stroke="#EDF3FB" stroke-width="36.6667" stroke-linecap="round" stroke-linejoin="round" stroke-miterlimit="10" fill="none" fill-rule="evenodd"/><path d="M2738.27 2037.27 2764.6 2052.47" stroke="#EDF3FB" stroke-width="36.6667" stroke-linecap="round" stroke-linejoin="round" stroke-miterlimit="10" fill="none" fill-rule="evenodd"/><path d="M2738.74 2038.23 2712.41 2023.03" stroke="#EDF3FB" stroke-width="36.6667" stroke-linecap="round" stroke-linejoin="round" stroke-miterlimit="10" fill="none" fill-rule="evenodd"/><path d="M0 0 51.7379 129.343" stroke="#FFFF00" stroke-width="55" stroke-linecap="round" stroke-linejoin="round" stroke-miterlimit="10" fill="none" fill-rule="evenodd" transform="matrix(-1 0 0 1 2629.24 1891.5)"/><path d="M0 0 51.7379 129.343" stroke="#FFFF00" stroke-width="55" stroke-linecap="round" stroke-linejoin="round" stroke-miterlimit="10" fill="none" fill-rule="evenodd" transform="matrix(-1 0 0 1 2633.24 2022.5)"/><path d="M2632.42 2022.5 2577.5 2022.5" stroke="#FFFF00" stroke-width="55" stroke-linecap="round" stroke-linejoin="round" stroke-miterlimit="10" fill="none" fill-rule="evenodd"/></g></svg>