<svg width="649" height="650" xmlns="http://www.w3.org/2000/svg" xmlns:xlink="http://www.w3.org/1999/xlink" overflow="hidden"><defs><clipPath id="clip0"><rect x="1746" y="1749" width="649" height="650"/></clipPath></defs><g clip-path="url(#clip0)" transform="translate(-1746 -1749)"><path d="M2229.11 2201C2133.4 2200.14 2062.71 2201.19 1967 2200.32L2094.46 2026.67C2119.8 1992.68 2157.37 1941 2229.11 1941 2300.85 1941 2359 1999.2 2359 2071 2359 2142.8 2300.85 2201 2229.11 2201Z" fill="#7A9BB2" fill-rule="evenodd"/><path d="M1786 2020C1786 1919.48 1867.48 1838 1968 1838 2068.52 1838 2150 1919.48 2150 2020 2150 2120.52 2068.52 2202 1968 2202 1867.48 2202 1786 2120.52 1786 2020Z" fill="#AFC3D1" fill-rule="evenodd"/><path d="M0 0 51.7379 129.343" stroke="#FFFF00" stroke-width="55" stroke-linecap="round" stroke-linejoin="round" stroke-miterlimit="10" fill="none" fill-rule="evenodd" transform="matrix(-1 0 0 1 2095.24 2054.5)"/><path d="M0 0 51.7379 129.343" stroke="#FFFF00" stroke-width="55" stroke-linecap="round" stroke-linejoin="round" stroke-miterlimit="10" fill="none" fill-rule="evenodd" transform="matrix(-1 0 0 1 2099.24 2184.5)"/><path d="M2098.43 2185.5 2043.5 2185.5" stroke="#FFFF00" stroke-width="55" stroke-linecap="round" stroke-linejoin="round" stroke-miterlimit="10" fill="none" fill-rule="evenodd"/></g></svg>