<svg width="649" height="650" xmlns="http://www.w3.org/2000/svg" xmlns:xlink="http://www.w3.org/1999/xlink" overflow="hidden"><defs><clipPath id="clip0"><rect x="3320" y="1760" width="649" height="650"/></clipPath></defs><g clip-path="url(#clip0)" transform="translate(-3320 -1760)"><path d="M3803.11 2188C3707.4 2187.14 3636.71 2188.19 3541 2187.33L3668.46 2014.34C3693.8 1980.48 3731.37 1929 3803.11 1929 3874.85 1929 3933 1986.98 3933 2058.5 3933 2130.02 3874.85 2188 3803.11 2188Z" fill="#7A9BB2" fill-rule="evenodd"/><path d="M3360 2008C3360 1907.48 3441.48 1826 3542 1826 3642.52 1826 3724 1907.48 3724 2008 3724 2108.52 3642.52 2190 3542 2190 3441.48 2190 3360 2108.52 3360 2008Z" fill="#AFC3D1" fill-rule="evenodd"/><path d="M0 0 68.5598 67.4053" stroke="#195FAB" stroke-width="55" stroke-linecap="round" stroke-linejoin="round" stroke-miterlimit="10" fill="none" fill-rule="evenodd" transform="matrix(-1 0 0 1 3517.06 2195.5)"/><path d="M0 0 69.2657 69.6634" stroke="#195FAB" stroke-width="55" stroke-linecap="round" stroke-linejoin="round" stroke-miterlimit="10" fill="none" fill-rule="evenodd" transform="matrix(-1 0 0 1 3838.77 2241.5)"/><path d="M0 0 10.3125 10.3125" stroke="#5B9EE7" stroke-width="55" stroke-linecap="round" stroke-linejoin="round" stroke-miterlimit="10" fill="none" fill-rule="evenodd" transform="matrix(-1 0 0 1 3758.81 2205.5)"/><path d="M0 0 51.7379 129.343" stroke="#FFFF00" stroke-width="55" stroke-linecap="round" stroke-linejoin="round" stroke-miterlimit="10" fill="none" fill-rule="evenodd" transform="matrix(-1 0 0 1 3669.24 2040.5)"/><path d="M0 0 51.7379 129.343" stroke="#FFFF00" stroke-width="55" stroke-linecap="round" stroke-linejoin="round" stroke-miterlimit="10" fill="none" fill-rule="evenodd" transform="matrix(-1 0 0 1 3673.24 2171.5)"/><path d="M3672.43 2171.5 3617.5 2171.5" stroke="#FFFF00" stroke-width="55" stroke-linecap="round" stroke-linejoin="round" stroke-miterlimit="10" fill="none" fill-rule="evenodd"/></g></svg>