<svg width="650" height="650" xmlns="http://www.w3.org/2000/svg" xmlns:xlink="http://www.w3.org/1999/xlink" overflow="hidden"><defs><clipPath id="clip0"><rect x="3043" y="1601" width="650" height="650"/></clipPath></defs><g clip-path="url(#clip0)" transform="translate(-3043 -1601)"><path d="M3526.11 2038C3430.4 2037.14 3359.71 2038.19 3264 2037.32L3391.46 1863.67C3416.8 1829.68 3454.37 1778 3526.11 1778 3597.85 1778 3656 1836.2 3656 1908 3656 1979.8 3597.85 2038 3526.11 2038Z" fill="#A0B8C8" fill-rule="evenodd"/><path d="M3083 1857.5C3083 1757.26 3164.48 1676 3265 1676 3365.52 1676 3447 1757.26 3447 1857.5 3447 1957.74 3365.52 2039 3265 2039 3164.48 2039 3083 1957.74 3083 1857.5Z" fill="#C6D4DE" fill-rule="evenodd"/><path d="M3479 2037.5C3479 2021.76 3491.76 2009 3507.5 2009 3523.24 2009 3536 2021.76 3536 2037.5 3536 2053.24 3523.24 2066 3507.5 2066 3491.76 2066 3479 2053.24 3479 2037.5Z" stroke="#EDF3FB" stroke-width="45.8333" stroke-linecap="round" stroke-linejoin="round" stroke-miterlimit="10" fill="#EDF3FB" fill-rule="evenodd"/><path d="M3211 2061.5C3211 2045.76 3223.76 2033 3239.5 2033 3255.24 2033 3268 2045.76 3268 2061.5 3268 2077.24 3255.24 2090 3239.5 2090 3223.76 2090 3211 2077.24 3211 2061.5Z" stroke="#EDF3FB" stroke-width="45.8333" stroke-linecap="round" stroke-linejoin="round" stroke-miterlimit="10" fill="#EDF3FB" fill-rule="evenodd"/><path d="M0 0 51.7379 129.343" stroke="#FFFF00" stroke-width="55" stroke-linecap="round" stroke-linejoin="round" stroke-miterlimit="10" fill="none" fill-rule="evenodd" transform="matrix(-1 0 0 1 3392.24 1892.5)"/><path d="M0 0 51.7379 129.343" stroke="#FFFF00" stroke-width="55" stroke-linecap="round" stroke-linejoin="round" stroke-miterlimit="10" fill="none" fill-rule="evenodd" transform="matrix(-1 0 0 1 3396.24 2022.5)"/><path d="M3395.43 2023.5 3340.5 2023.5" stroke="#FFFF00" stroke-width="55" stroke-linecap="round" stroke-linejoin="round" stroke-miterlimit="10" fill="none" fill-rule="evenodd"/></g></svg>