<svg width="649" height="649" xmlns="http://www.w3.org/2000/svg" xmlns:xlink="http://www.w3.org/1999/xlink" overflow="hidden"><defs><clipPath id="clip0"><rect x="3733" y="1595" width="649" height="649"/></clipPath></defs><g clip-path="url(#clip0)" transform="translate(-3733 -1595)"><path d="M4215.78 2032C4119.82 2031.14 4048.95 2032.19 3953 2031.32L4080.79 1857.67C4106.19 1823.68 4143.86 1772 4215.78 1772 4287.7 1772 4346 1830.2 4346 1902 4346 1973.8 4287.7 2032 4215.78 2032Z" fill="#7A9BB2" fill-rule="evenodd"/><path d="M3773 1851C3773 1750.48 3854.26 1669 3954.5 1669 4054.74 1669 4136 1750.48 4136 1851 4136 1951.52 4054.74 2033 3954.5 2033 3854.26 2033 3773 1951.52 3773 1851Z" fill="#AFC3D1" fill-rule="evenodd"/><path d="M4169 2031.5C4169 2015.76 4181.76 2003 4197.5 2003 4213.24 2003 4226 2015.76 4226 2031.5 4226 2047.24 4213.24 2060 4197.5 2060 4181.76 2060 4169 2047.24 4169 2031.5Z" stroke="#EDF3FB" stroke-width="45.8333" stroke-linecap="round" stroke-linejoin="round" stroke-miterlimit="10" fill="#EDF3FB" fill-rule="evenodd"/><path d="M3901 2055.5C3901 2039.76 3913.76 2027 3929.5 2027 3945.24 2027 3958 2039.76 3958 2055.5 3958 2071.24 3945.24 2084 3929.5 2084 3913.76 2084 3901 2071.24 3901 2055.5Z" stroke="#EDF3FB" stroke-width="45.8333" stroke-linecap="round" stroke-linejoin="round" stroke-miterlimit="10" fill="#EDF3FB" fill-rule="evenodd"/><path d="M0 0 51.7379 129.343" stroke="#FFFF00" stroke-width="55" stroke-linecap="round" stroke-linejoin="round" stroke-miterlimit="10" fill="none" fill-rule="evenodd" transform="matrix(-1 0 0 1 4082.24 1886.5)"/><path d="M0 0 51.7379 129.343" stroke="#FFFF00" stroke-width="55" stroke-linecap="round" stroke-linejoin="round" stroke-miterlimit="10" fill="none" fill-rule="evenodd" transform="matrix(-1 0 0 1 4086.24 2016.5)"/><path d="M4085.42 2017.5 4030.5 2017.5" stroke="#FFFF00" stroke-width="55" stroke-linecap="round" stroke-linejoin="round" stroke-miterlimit="10" fill="none" fill-rule="evenodd"/></g></svg>