<svg width="650" height="650" xmlns="http://www.w3.org/2000/svg" xmlns:xlink="http://www.w3.org/1999/xlink" overflow="hidden"><defs><clipPath id="clip0"><rect x="2529" y="1760" width="650" height="650"/></clipPath></defs><g clip-path="url(#clip0)" transform="translate(-2529 -1760)"><path d="M3012.11 2188C2916.4 2187.14 2845.71 2188.19 2750 2187.33L2877.46 2014.34C2902.8 1980.48 2940.37 1929 3012.11 1929 3083.85 1929 3142 1986.98 3142 2058.5 3142 2130.02 3083.85 2188 3012.11 2188Z" fill="#A0B8C8" fill-rule="evenodd"/><path d="M2569 2008C2569 1907.48 2650.48 1826 2751 1826 2851.52 1826 2933 1907.48 2933 2008 2933 2108.52 2851.52 2190 2751 2190 2650.48 2190 2569 2108.52 2569 2008Z" fill="#C6D4DE" fill-rule="evenodd"/><path d="M0 0 68.5598 67.4053" stroke="#195FAB" stroke-width="55" stroke-linecap="round" stroke-linejoin="round" stroke-miterlimit="10" fill="none" fill-rule="evenodd" transform="matrix(-1 0 0 1 2727.06 2195.5)"/><path d="M0 0 69.2657 69.6634" stroke="#195FAB" stroke-width="55" stroke-linecap="round" stroke-linejoin="round" stroke-miterlimit="10" fill="none" fill-rule="evenodd" transform="matrix(-1 0 0 1 3047.77 2241.5)"/><path d="M0 0 10.3125 10.3125" stroke="#5B9EE7" stroke-width="55" stroke-linecap="round" stroke-linejoin="round" stroke-miterlimit="10" fill="none" fill-rule="evenodd" transform="matrix(-1 0 0 1 2967.81 2205.5)"/><path d="M0 0 51.7379 129.343" stroke="#FFFF00" stroke-width="55" stroke-linecap="round" stroke-linejoin="round" stroke-miterlimit="10" fill="none" fill-rule="evenodd" transform="matrix(-1 0 0 1 2878.24 2040.5)"/><path d="M0 0 51.7379 129.343" stroke="#FFFF00" stroke-width="55" stroke-linecap="round" stroke-linejoin="round" stroke-miterlimit="10" fill="none" fill-rule="evenodd" transform="matrix(-1 0 0 1 2883.24 2171.5)"/><path d="M2881.43 2171.5 2826.5 2171.5" stroke="#FFFF00" stroke-width="55" stroke-linecap="round" stroke-linejoin="round" stroke-miterlimit="10" fill="none" fill-rule="evenodd"/></g></svg>