<svg width="650" height="649" xmlns="http://www.w3.org/2000/svg" xmlns:xlink="http://www.w3.org/1999/xlink" overflow="hidden"><defs><clipPath id="clip0"><rect x="23" y="1593" width="650" height="649"/></clipPath></defs><g clip-path="url(#clip0)" transform="translate(-23 -1593)"><path d="M506.109 2024C410.4 2023.14 339.708 2024.19 244 2023.32L371.463 1849.67C396.8 1815.68 434.372 1764 506.109 1764 577.846 1764 636 1822.2 636 1894 636 1965.8 577.846 2024 506.109 2024Z" fill="#A0B8C8" fill-rule="evenodd"/><path d="M62.9999 1843C62.9999 1742.48 144.484 1661 245 1661 345.516 1661 427 1742.48 427 1843 427 1943.52 345.516 2025 245 2025 144.484 2025 62.9999 1943.52 62.9999 1843Z" fill="#C6D4DE" fill-rule="evenodd"/><path d="M473.5 2142.8 473.499 2113.5" stroke="#EDF3FB" stroke-width="36.6667" stroke-linecap="round" stroke-linejoin="round" stroke-miterlimit="10" fill="none" fill-rule="evenodd"/><path d="M473.5 2142.5 473.5 2171.8" stroke="#EDF3FB" stroke-width="36.6667" stroke-linecap="round" stroke-linejoin="round" stroke-miterlimit="10" fill="none" fill-rule="evenodd"/><path d="M473.773 2143.25 500.726 2127.69" stroke="#EDF3FB" stroke-width="36.6667" stroke-linecap="round" stroke-linejoin="round" stroke-miterlimit="10" fill="none" fill-rule="evenodd"/><path d="M473.548 2142.27 446.595 2157.83" stroke="#EDF3FB" stroke-width="36.6667" stroke-linecap="round" stroke-linejoin="round" stroke-miterlimit="10" fill="none" fill-rule="evenodd"/><path d="M472.906 2142.23 499.86 2157.79" stroke="#EDF3FB" stroke-width="36.6667" stroke-linecap="round" stroke-linejoin="round" stroke-miterlimit="10" fill="none" fill-rule="evenodd"/><path d="M473.385 2143.21 446.431 2127.65" stroke="#EDF3FB" stroke-width="36.6667" stroke-linecap="round" stroke-linejoin="round" stroke-miterlimit="10" fill="none" fill-rule="evenodd"/><path d="M0 0 68.5598 67.4057" stroke="#195FAB" stroke-width="55" stroke-linecap="round" stroke-linejoin="round" stroke-miterlimit="10" fill="none" fill-rule="evenodd" transform="matrix(-1 0 0 1 222.06 2023.5)"/><path d="M0 0 12.0859 13.4801" stroke="#195FAB" stroke-width="55" stroke-linecap="round" stroke-linejoin="round" stroke-miterlimit="10" fill="none" fill-rule="evenodd" transform="matrix(-1 0 0 1 543.586 2069.5)"/><path d="M0 0 10.3125 10.3125" stroke="#5B9EE7" stroke-width="55" stroke-linecap="round" stroke-linejoin="round" stroke-miterlimit="10" fill="none" fill-rule="evenodd" transform="matrix(-1 0 0 1 463.812 2033.5)"/><path d="M0 0 51.7379 129.343" stroke="#FFFF00" stroke-width="55" stroke-linecap="round" stroke-linejoin="round" stroke-miterlimit="10" fill="none" fill-rule="evenodd" transform="matrix(-1 0 0 1 372.238 1875.5)"/><path d="M0 0 51.7379 129.343" stroke="#FFFF00" stroke-width="55" stroke-linecap="round" stroke-linejoin="round" stroke-miterlimit="10" fill="none" fill-rule="evenodd" transform="matrix(-1 0 0 1 376.238 2006.5)"/><path d="M375.425 2006.5 320.5 2006.5" stroke="#FFFF00" stroke-width="55" stroke-linecap="round" stroke-linejoin="round" stroke-miterlimit="10" fill="none" fill-rule="evenodd"/></g></svg>