<svg width="1039" height="1039" xmlns="http://www.w3.org/2000/svg" xmlns:xlink="http://www.w3.org/1999/xlink" overflow="hidden"><defs><clipPath id="clip0"><rect x="151" y="0" width="1039" height="1039"/></clipPath></defs><g clip-path="url(#clip0)" transform="translate(-151 0)"><path d="M575.5 453.5 575.5 895.232" stroke="#17406D" stroke-width="36.6667" stroke-linecap="round" stroke-linejoin="round" stroke-miterlimit="10" fill="none" fill-rule="evenodd"/><path d="M0 0 181.89 0.000360892" stroke="#17406D" stroke-width="27.5" stroke-linecap="round" stroke-linejoin="round" stroke-miterlimit="10" fill="none" fill-rule="evenodd" transform="matrix(1 0 0 -1 484 447)"/><path d="M668 391 668 445.112" stroke="#17406D" stroke-width="27.5" stroke-linecap="round" stroke-linejoin="round" stroke-miterlimit="10" fill="none" fill-rule="evenodd"/><path d="M484 391 484 445.316" stroke="#17406D" stroke-width="27.5" stroke-linecap="round" stroke-linejoin="round" stroke-miterlimit="10" fill="none" fill-rule="evenodd"/><path d="M0 0 81.1687 0.000360892" stroke="#17406D" stroke-width="27.5" stroke-linecap="round" stroke-linejoin="round" stroke-miterlimit="10" fill="none" fill-rule="evenodd" transform="matrix(1 0 0 -1 490 693)"/><path d="M486 667 486 692.984" stroke="#17406D" stroke-width="27.5" stroke-linecap="round" stroke-linejoin="round" stroke-miterlimit="10" fill="none" fill-rule="evenodd"/><path d="M0 0 81.1687 0.000360892" stroke="#17406D" stroke-width="27.5" stroke-linecap="round" stroke-linejoin="round" stroke-miterlimit="10" fill="none" fill-rule="evenodd" transform="matrix(-1 0 0 1 656.169 750)"/><path d="M660 722 660 749.056" stroke="#17406D" stroke-width="27.5" stroke-linecap="round" stroke-linejoin="round" stroke-miterlimit="10" fill="none" fill-rule="evenodd"/><path d="M660 621.5 660 621.5C677.949 621.5 692.5 636.051 692.5 654L692.5 718.5 627.5 718.5 627.5 654C627.5 636.051 642.051 621.5 660 621.5Z" stroke="#2161A6" stroke-width="36.6667" stroke-linecap="round" stroke-linejoin="round" stroke-miterlimit="10" fill="#2161A6" fill-rule="evenodd"/><path d="M658.5 849.5 1042.7 849.5" stroke="#112F4F" stroke-width="68.75" stroke-linecap="round" stroke-linejoin="round" stroke-miterlimit="10" fill="none" fill-rule="evenodd"/><path d="M376.5 848.5 490.136 848.5" stroke="#112F4F" stroke-width="68.75" stroke-linecap="round" stroke-linejoin="round" stroke-miterlimit="10" fill="none" fill-rule="evenodd"/><path d="M374.754 848.495C273.136 849.186 190.197 767.592 189.504 666.25 188.87 573.505 257.73 494.869 349.966 483.007" stroke="#17406D" stroke-width="68.75" stroke-linecap="round" stroke-linejoin="round" stroke-miterlimit="10" fill="none" fill-rule="evenodd"/><path d="M351.45 481.197C334.22 343.927 431.532 218.68 568.802 201.45 704.795 184.381 829.256 279.774 848.116 415.529" stroke="#2161A6" stroke-width="68.75" stroke-linecap="round" stroke-linejoin="round" stroke-miterlimit="10" fill="none" fill-rule="evenodd"/><path d="M726.414 481.86C786.586 406.089 896.964 393.305 972.951 453.306 1021.73 491.823 1046.41 553.216 1037.82 614.666" stroke="#448AD7" stroke-width="68.75" stroke-linecap="round" stroke-linejoin="round" stroke-miterlimit="10" fill="none" fill-rule="evenodd"/><path d="M1038.16 615.502C1102.78 615.868 1154.86 668.547 1154.5 733.163 1154.14 796.302 1103.75 847.767 1040.63 849.457" stroke="#71A6E1" stroke-width="68.75" stroke-linecap="round" stroke-linejoin="round" stroke-miterlimit="10" fill="none" fill-rule="evenodd"/><rect x="453.5" y="584.5" width="65" height="78" stroke="#2161A6" stroke-width="36.6667" stroke-linecap="round" stroke-linejoin="round" stroke-miterlimit="10" fill="#2161A6"/><path d="M2.82922e-05-9.16667 80.2625-9.16642C85.3251-9.1664 89.4292-5.06233 89.4291 0.000276016 89.4291 5.06289 85.3251 9.16693 80.2624 9.16691L-2.82922e-05 9.16667C-5.06264 9.16665-9.16668 5.06258-9.16667-2.82922e-05-9.16665-5.06264-5.06258-9.16668 2.82922e-05-9.16667ZM-8.48765e-05 27.5C-15.1879 27.5-27.5 15.1877-27.5-8.48765e-05-27.5-15.1879-15.1877-27.5 8.48765e-05-27.5 15.1879-27.5 27.5-15.1877 27.5 8.48765e-05 27.5 15.1879 15.1877 27.5-8.48765e-05 27.5ZM80.2625 0.000247724 61.9292-27.4998 116.929 0.000360892 61.9291 27.5002Z" fill="#2161A6" transform="matrix(1 0 0 -1 440 378)"/><path d="M615 370.833 718.937 370.834C724 370.834 728.104 374.938 728.104 380 728.104 385.063 724 389.167 718.937 389.167L615 389.167C609.937 389.167 605.833 385.062 605.833 380 605.833 374.937 609.937 370.833 615 370.833ZM615 407.5C599.812 407.5 587.5 395.188 587.5 380 587.5 364.812 599.812 352.5 615 352.5 630.188 352.5 642.5 364.812 642.5 380 642.5 395.188 630.188 407.5 615 407.5ZM718.937 352.5C734.125 352.5 746.437 364.812 746.437 380 746.437 395.188 734.125 407.5 718.937 407.5 703.749 407.5 691.437 395.188 691.437 380 691.437 364.812 703.749 352.5 718.937 352.5Z" fill="#2161A6"/></g></svg>
