<?xml version="1.0" encoding="UTF-8" standalone="no"?>
<svg
   xmlns:dc="http://purl.org/dc/elements/1.1/"
   xmlns:cc="http://creativecommons.org/ns#"
   xmlns:rdf="http://www.w3.org/1999/02/22-rdf-syntax-ns#"
   xmlns:svg="http://www.w3.org/2000/svg"
   xmlns="http://www.w3.org/2000/svg"
   xmlns:sodipodi="http://sodipodi.sourceforge.net/DTD/sodipodi-0.dtd"
   xmlns:inkscape="http://www.inkscape.org/namespaces/inkscape"
   width="2800.5474"
   height="748.45343"
   overflow="hidden"
   version="1.1"
   id="svg49"
   sodipodi:docname="logo.svg"
   inkscape:version="1.0 (4035a4fb49, 2020-05-01)">
  <metadata
     id="metadata53">
    <rdf:RDF>
      <cc:Work
         rdf:about="">
        <dc:format>image/svg+xml</dc:format>
        <dc:type
           rdf:resource="http://purl.org/dc/dcmitype/StillImage" />
      </cc:Work>
    </rdf:RDF>
  </metadata>
  <sodipodi:namedview
     inkscape:document-rotation="0"
     pagecolor="#ffffff"
     bordercolor="#666666"
     borderopacity="1"
     objecttolerance="10"
     gridtolerance="10"
     guidetolerance="10"
     inkscape:pageopacity="0"
     inkscape:pageshadow="2"
     inkscape:window-width="1920"
     inkscape:window-height="1009"
     id="namedview51"
     showgrid="false"
     inkscape:zoom="0.34816313"
     inkscape:cx="1483.3793"
     inkscape:cy="423.38809"
     inkscape:window-x="-8"
     inkscape:window-y="-8"
     inkscape:window-maximized="1"
     inkscape:current-layer="text9" />
  <defs
     id="defs5">
    <clipPath
       id="clip0">
      <rect
         x="1652"
         y="107"
         width="2967"
         height="909"
         id="rect2" />
    </clipPath>
  </defs>
  <g
     clip-path="url(#clip0)"
     transform="translate(-1652.1207,-138.11191)"
     id="g47">
    <g
       style="font-weight:700;font-size:275px;font-family:'Segoe Print', 'Segoe Print_MSFontService', sans-serif;fill:#266ab4"
       id="text9"
       transform="translate(2544.05,426)"
       aria-label="WetterstationSchönborn">
      <path
         id="path852"
         style="font-weight:700;font-size:275px;font-family:'Segoe Print', 'Segoe Print_MSFontService', sans-serif;fill:#266ab4"
         d="m 214.5752,-5.2368164 q -2.01416,3.2226562 -7.1167,5.50537109 -4.96827,2.41699221 -8.3252,2.41699221 -8.99658,0 -16.38184,-9.1308594 -7.25097,-9.1308595 -21.48437,-46.3256835 -14.2334,-37.329102 -15.71045,-43.908691 l -33.1665,59.753417 q -27.526859,49.54834 -36.657718,49.54834 -6.57959,0 -11.279297,-3.2226559 -4.699707,-3.0883789 -8.996582,-12.3535157 -4.162598,-9.2651364 -11.413574,-41.2231444 -7.250977,-32.092285 -13.15918,-64.721684 -5.773926,-32.76367 -7.653809,-40.41748 -1.208496,-5.10254 -2.282714,-8.19091 -3.491211,-10.74219 -3.491211,-15.57618 0,-5.9082 5.236816,-11.41357 5.236816,-5.63965 12.219238,-5.63965 12.756348,0 17.858887,20.41016 5.102539,20.27588 5.773926,28.73535 l 3.491211,22.69287 q 1.611328,11.41357 4.162597,24.572754 2.685547,13.696289 4.296875,23.364258 5.371094,32.36084 6.982422,35.717773 25.109863,-40.014648 33.166503,-54.516601 8.05664,-14.636234 23.90137,-48.474124 1.87988,-3.35693 6.04248,-6.04248 4.29687,-2.81982 8.72803,-2.81982 5.77392,0 9.66796,5.9082 3.89405,5.9082 13.29346,30.34668 0.40283,1.47705 1.34278,3.62549 l 10.87646,28.735351 q 14.50195,38.537597 15.979,39.477539 38.40332,-72.64404 46.05713,-148.7793 0,-5.23681 4.56543,-8.19092 4.69971,-3.08837 10.74219,-3.08837 8.3252,0 11.81641,5.23681 3.49121,5.10254 3.49121,11.54785 0,13.29346 -7.25098,42.02881 -7.25098,28.60108 -21.48437,61.901858 l -3.89405,9.265137 q -1.47705,3.894043 -21.61865,45.385742 -6.17676,12.756348 -8.32519,17.8588866 z" />
      <path
         id="path854"
         style="font-weight:700;font-size:275px;font-family:'Segoe Print', 'Segoe Print_MSFontService', sans-serif;fill:#266ab4"
         d="m 408.20312,-46.191406 q 0,13.964844 -23.49853,33.435058 -23.49854,19.3359378 -53.03955,19.3359378 -22.69287,0 -35.71777,-14.2333984 -13.02491,-14.3676754 -13.02491,-39.8803714 0,-37.597656 26.58692,-70.49561 26.58691,-32.89794 56.79931,-32.89794 15.03907,0 24.16993,9.53369 9.13085,9.53369 9.13085,22.69287 0,23.364256 -22.42431,44.580076 -22.42432,21.081543 -57.4707,29.138184 -4.02832,0.939941 -4.02832,4.833984 0,6.445313 5.63964,12.353516 5.77393,5.773926 15.30762,5.773926 26.98975,0 53.57666,-27.795411 5.10254,-5.371093 9.93652,-5.371093 8.05664,0 8.05664,8.996582 z m -90.10009,-23.76709 q 21.21582,-4.296875 37.3291,-18.127441 16.24756,-13.830563 16.24756,-25.109863 0,-4.43115 -2.55127,-7.38525 -2.41699,-3.08838 -6.31104,-3.08838 -11.68213,0 -25.91552,17.1875 -14.2334,17.187496 -18.79883,36.523434 z" />
      <path
         id="path856"
         style="font-weight:700;font-size:275px;font-family:'Segoe Print', 'Segoe Print_MSFontService', sans-serif;fill:#266ab4"
         d="m 485.14404,-109.0332 q -1.20849,0 -7.65381,29.943845 -6.31103,29.943847 -6.31103,36.254882 0,11.010743 2.28271,15.441895 2.417,4.296875 7.78809,4.296875 7.51953,0 14.36768,-2.55127 6.98242,-2.685547 18.26171,-11.816406 6.98243,-5.773926 11.81641,-5.773926 3.89404,0 6.17676,2.282715 2.41699,2.148438 2.41699,5.102539 0,11.816406 -19.06738,26.855469 -19.06738,14.9047851 -40.28321,14.9047851 -17.7246,0 -27.12402,-10.4736328 -9.26514,-10.4736333 -9.26514,-30.0781253 0,-18.127441 13.56202,-72.375485 -8.59375,0.93994 -11.95069,0.93994 h -2.81982 q -6.17676,0 -12.62207,-4.02832 -6.31104,-4.02832 -6.31104,-12.89063 0,-11.27929 12.75635,-11.27929 l 28.73535,-1.07422 q 5.63965,-16.24756 11.95069,-42.56592 3.75976,-16.38184 17.05322,-16.38184 7.38525,0 11.54785,4.56543 4.1626,4.43116 4.1626,9.93653 0,2.14843 -11.41358,41.4917 42.7002,-3.75977 46.8628,-3.75977 7.1167,0 9.39941,2.14844 2.28272,2.01416 2.28272,7.92236 0,11.95068 -20.27588,15.17334 z" />
      <path
         id="path858"
         style="font-weight:700;font-size:275px;font-family:'Segoe Print', 'Segoe Print_MSFontService', sans-serif;fill:#266ab4"
         d="m 613.51318,-109.0332 q -1.20849,0 -7.65381,29.943845 -6.31103,29.943847 -6.31103,36.254882 0,11.010743 2.28271,15.441895 2.417,4.296875 7.78809,4.296875 7.51953,0 14.36768,-2.55127 6.98242,-2.685547 18.26172,-11.816406 6.98242,-5.773926 11.8164,-5.773926 3.89404,0 6.17676,2.282715 2.41699,2.148438 2.41699,5.102539 0,11.816406 -19.06738,26.855469 -19.06738,14.9047851 -40.2832,14.9047851 -17.72461,0 -27.12403,-10.4736328 -9.26513,-10.4736333 -9.26513,-30.0781253 0,-18.127441 13.56201,-72.375485 -8.59375,0.93994 -11.95069,0.93994 h -2.81982 q -6.17676,0 -12.62207,-4.02832 -6.31104,-4.02832 -6.31104,-12.89063 0,-11.27929 12.75635,-11.27929 l 28.73535,-1.07422 q 5.63965,-16.24756 11.95069,-42.56592 3.75976,-16.38184 17.05322,-16.38184 7.38525,0 11.54785,4.56543 4.1626,4.43116 4.1626,9.93653 0,2.14843 -11.41358,41.4917 42.7002,-3.75977 46.8628,-3.75977 7.1167,0 9.39941,2.14844 2.28272,2.01416 2.28272,7.92236 0,11.95068 -20.27588,15.17334 z" />
      <path
         id="path860"
         style="font-weight:700;font-size:275px;font-family:'Segoe Print', 'Segoe Print_MSFontService', sans-serif;fill:#266ab4"
         d="m 807.27539,-46.191406 q 0,13.964844 -23.49853,33.435058 -23.49854,19.3359378 -53.03956,19.3359378 -22.69287,0 -35.71777,-14.2333984 -13.0249,-14.3676754 -13.0249,-39.8803714 0,-37.597656 26.58691,-70.49561 26.58692,-32.89794 56.79932,-32.89794 15.03906,0 24.16992,9.53369 9.13086,9.53369 9.13086,22.69287 0,23.364256 -22.42432,44.580076 -22.42431,21.081543 -57.4707,29.138184 -4.02832,0.939941 -4.02832,4.833984 0,6.445313 5.63965,12.353516 5.77392,5.773926 15.30762,5.773926 26.98974,0 53.57666,-27.795411 5.10254,-5.371093 9.93652,-5.371093 8.05664,0 8.05664,8.996582 z m -90.1001,-23.76709 q 21.21582,-4.296875 37.3291,-18.127441 16.24756,-13.830563 16.24756,-25.109863 0,-4.43115 -2.55127,-7.38525 -2.41699,-3.08838 -6.31103,-3.08838 -11.68213,0 -25.91553,17.1875 -14.2334,17.187496 -18.79883,36.523434 z" />
      <path
         id="path862"
         style="font-weight:700;font-size:275px;font-family:'Segoe Print', 'Segoe Print_MSFontService', sans-serif;fill:#266ab4"
         d="m 863.00049,-66.601562 2.28271,-4.296875 q 16.24756,-32.629393 34.91211,-52.905273 18.79883,-20.41016 36.65772,-20.41016 13.69629,0 22.29004,7.51953 8.72802,7.51954 8.72802,17.85889 0,6.44531 -2.9541,11.14502 -2.9541,4.56543 -8.19092,4.56543 -8.32519,0 -15.17334,-6.84814 -4.83398,-4.43116 -7.6538,-4.43116 -10.07081,0 -33.70362,31.286624 -23.63281,31.286621 -28.46679,70.361328 -1.47706,11.2792972 -6.57959,15.7104496 -5.10254,4.5654296 -13.83057,4.5654296 -9.26514,0 -13.15918,-10.4736328 -3.89404,-10.6079104 -3.89404,-34.5092774 0,-9.802246 0.53711,-26.452637 0.53711,-15.710449 3.08837,-38.403324 0.67139,-5.9082 0.93995,-9.26513 1.20849,-13.15918 2.68554,-17.99317 1.61133,-4.96826 7.25098,-9.26513 5.63965,-4.29688 12.48779,-4.29688 7.25098,0 11.01074,4.1626 3.75977,4.1626 3.75977,9.13086 0,6.31103 -6.04248,26.18408 -2.14844,6.848145 -3.62549,16.381837 z" />
      <path
         id="path864"
         style="font-weight:700;font-size:275px;font-family:'Segoe Print', 'Segoe Print_MSFontService', sans-serif;fill:#266ab4"
         d="m 1037.6953,-34.106445 q -0.5371,-7.250977 -23.0957,-17.72461 -27.66112,-13.293457 -35.31493,-22.827148 -7.65381,-9.667969 -7.65381,-20.947266 0,-23.767091 26.58691,-41.491701 26.72123,-17.85888 49.81693,-17.85888 22.6928,0 22.6928,19.73876 0,5.23682 -5.2368,9.39942 -5.1025,4.1626 -8.728,4.1626 -1.4771,0 -5.2368,-1.87989 -3.7598,-1.87988 -5.7739,-1.87988 -11.9507,0 -26.3184,8.05664 -14.3677,8.05664 -14.3677,18.79883 0,5.236816 5.1026,10.205078 5.1025,4.833984 20.8129,12.219238 23.23,11.010742 30.6153,19.873047 7.3852,8.862305 7.3852,19.604492 0,19.604492 -26.5869,32.763672 -26.4526,13.0249024 -59.48484,13.0249024 -24.3042,0 -24.3042,-17.5903321 0,-6.4453123 5.10254,-11.0107423 5.10254,-4.56543 11.41357,-4.56543 2.55127,0 7.92236,1.879883 5.3711,2.01416 9.93653,2.01416 12.62204,0 26.45264,-4.02832 13.8306,-4.02832 18.2617,-9.936523 z" />
      <path
         id="path866"
         style="font-weight:700;font-size:275px;font-family:'Segoe Print', 'Segoe Print_MSFontService', sans-serif;fill:#266ab4"
         d="m 1145.2515,-109.0332 q -1.2085,0 -7.6538,29.943845 -6.3111,29.943847 -6.3111,36.254882 0,11.010743 2.2827,15.441895 2.417,4.296875 7.7881,4.296875 7.5196,0 14.3677,-2.55127 6.9824,-2.685547 18.2617,-11.816406 6.9824,-5.773926 11.8164,-5.773926 3.8941,0 6.1768,2.282715 2.417,2.148438 2.417,5.102539 0,11.816406 -19.0674,26.855469 -19.0674,14.9047851 -40.2832,14.9047851 -17.7246,0 -27.124,-10.4736328 -9.2652,-10.4736333 -9.2652,-30.0781253 0,-18.127441 13.562,-72.375485 -8.5937,0.93994 -11.9506,0.93994 h -2.8199 q -6.1767,0 -12.622,-4.02832 -6.3111,-4.02832 -6.3111,-12.89063 0,-11.27929 12.7564,-11.27929 l 28.7353,-1.07422 q 5.6397,-16.24756 11.9507,-42.56592 3.7598,-16.38184 17.0532,-16.38184 7.3853,0 11.5479,4.56543 4.1626,4.43116 4.1626,9.93653 0,2.14843 -11.4136,41.4917 42.7002,-3.75977 46.8628,-3.75977 7.1167,0 9.3994,2.14844 2.2827,2.01416 2.2827,7.92236 0,11.95068 -20.2759,15.17334 z" />
      <path
         id="path868"
         style="font-weight:700;font-size:275px;font-family:'Segoe Print', 'Segoe Print_MSFontService', sans-serif;fill:#266ab4"
         d="m 1310.8154,-44.98291 q -35.3149,46.5942381 -68.2129,46.5942381 -12.0849,0 -20.8129,-9.5336914 -8.7281,-9.5336917 -8.7281,-24.3041987 0,-35.583497 31.6895,-75.732418 31.6894,-40.28321 63.916,-40.28321 16.3818,0 21.4844,16.51612 15.4419,0 15.4419,11.8164 0,5.63965 -2.9541,20.410158 -5.3711,27.661133 -5.3711,44.177246 0,17.1875 2.2827,24.169922 2.417,6.982422 3.4912,9.13086 1.0742,2.148437 6.4453,4.565429 5.3711,2.55127 5.3711,7.1167 0,6.8481441 -6.9824,11.4135737 -6.8482,4.5654297 -14.3677,4.5654297 -25.2441,0 -22.6929,-50.6225584 z m -8.0566,-74.52393 q -13.562,0 -35.315,30.078129 -21.6186,29.943848 -21.6186,50.891113 0,11.010743 4.5654,11.010743 15.8448,0 38.9405,-28.063965 23.2299,-28.198242 23.2299,-49.27979 0,-6.71386 -3.0883,-10.60791 -2.9541,-4.02832 -6.7139,-4.02832 z" />
      <path
         id="path870"
         style="font-weight:700;font-size:275px;font-family:'Segoe Print', 'Segoe Print_MSFontService', sans-serif;fill:#266ab4"
         d="m 1434.7534,-109.0332 q -1.2085,0 -7.6538,29.943845 -6.311,29.943847 -6.311,36.254882 0,11.010743 2.2827,15.441895 2.417,4.296875 7.7881,4.296875 7.5195,0 14.3677,-2.55127 6.9824,-2.685547 18.2617,-11.816406 6.9824,-5.773926 11.8164,-5.773926 3.894,0 6.1767,2.282715 2.417,2.148438 2.417,5.102539 0,11.816406 -19.0674,26.855469 -19.0673,14.9047851 -40.2832,14.9047851 -17.7246,0 -27.124,-10.4736328 -9.2651,-10.4736333 -9.2651,-30.0781253 0,-18.127441 13.562,-72.375485 -8.5938,0.93994 -11.9507,0.93994 h -2.8198 q -6.1768,0 -12.6221,-4.02832 -6.311,-4.02832 -6.311,-12.89063 0,-11.27929 12.7563,-11.27929 l 28.7354,-1.07422 q 5.6396,-16.24756 11.9507,-42.56592 3.7597,-16.38184 17.0532,-16.38184 7.3852,0 11.5478,4.56543 4.1626,4.43116 4.1626,9.93653 0,2.14843 -11.4135,41.4917 42.7002,-3.75977 46.8628,-3.75977 7.1167,0 9.3994,2.14844 2.2827,2.01416 2.2827,7.92236 0,11.95068 -20.2759,15.17334 z" />
      <path
         id="path872"
         style="font-weight:700;font-size:275px;font-family:'Segoe Print', 'Segoe Print_MSFontService', sans-serif;fill:#266ab4"
         d="m 1582.7271,-199.53613 q 0,9.53369 -8.5938,16.78467 -8.5937,7.11669 -14.9048,7.11669 -8.0566,0 -14.3677,-6.71386 -6.1767,-6.71387 -6.1767,-13.42774 0,-9.66797 6.1767,-15.57617 6.1768,-6.04248 17.7246,-6.04248 8.9966,0 14.502,5.37109 5.6397,5.23682 5.6397,12.4878 z m -64.856,110.375974 v 0.134277 q 4.2969,-24.438481 4.2969,-27.929691 0,-9.93652 4.2968,-16.65039 4.4312,-6.71386 12.2193,-6.71386 9.1308,0 14.2334,4.29687 5.1025,4.29688 5.1025,9.66797 0,5.37109 -4.9682,22.15576 l -0.8057,2.9541 q -7.3853,25.91553 -8.8623,42.297366 -1.4771,16.381836 -1.4771,26.452637 0,8.190918 2.8199,21.887207 0.4028,2.416992 0.4028,4.0283202 0,3.0883789 -5.9082,8.3251953 -5.7739,5.2368164 -12.4878,5.2368164 -17.7246,0 -17.7246,-26.8554689 0,-22.827148 6.4453,-55.59082 1.3428,-7.250977 2.417,-13.696289 z" />
      <path
         id="path874"
         style="font-weight:700;font-size:275px;font-family:'Segoe Print', 'Segoe Print_MSFontService', sans-serif;fill:#266ab4"
         d="m 1714.1846,-68.078613 q -8.9966,31.420898 -34.2408,53.03955 -25.1098,21.4843755 -50.2197,21.4843755 -19.873,0 -32.7637,-14.5019531 -12.8906,-14.6362304 -12.8906,-35.8520504 0,-34.643555 23.6328,-68.212889 23.6328,-33.56934 57.3365,-33.56934 22.9614,0 37.1948,17.05322 14.2334,16.91895 14.2334,40.417485 0,10.205078 -2.2827,20.007324 z m -69.8242,-42.431637 q -9.3995,8.32519 -18.396,26.58691 -8.9966,18.261719 -8.9966,36.657715 0,11.14502 4.0283,18.395996 4.1626,7.250977 10.8765,7.250977 16.6503,0 34.6435,-19.73877 17.9932,-19.738769 17.9932,-44.311523 0,-13.830567 -5.9082,-22.692875 -5.774,-8.99658 -16.2476,-8.99658 -9.9365,0 -17.8589,6.84815 z" />
      <path
         id="path876"
         style="font-weight:700;font-size:275px;font-family:'Segoe Print', 'Segoe Print_MSFontService', sans-serif;fill:#266ab4"
         d="m 1855.3101,-19.604492 q -6.4454,-12.084961 -9.3995,-45.117188 -2.9541,-34.375 -13.1591,-34.375 -9.668,0 -33.4351,35.852051 -23.7671,35.717774 -29.2725,52.770996 -1.2085,5.1025393 -4.5654,8.4594728 -3.2226,3.3569336 -6.4453,3.3569336 -20.4102,0 -20.4102,-18.6645504 0,-6.311035 4.0284,-28.735352 5.2368,-29.003906 5.2368,-70.898441 0,-6.31103 5.5054,-13.42773 5.5053,-7.25098 11.6821,-7.25098 7.7881,0 11.9507,3.89405 4.1626,3.89404 4.1626,20.67871 0,12.75634 -7.6538,49.414059 29.1381,-68.212889 64.9902,-68.212889 31.1523,0 36.5234,49.011229 5.3711,49.951172 12.3535,49.951172 3.0884,0 7.1167,-1.342774 4.834,-1.611328 7.6539,-1.611328 6.4453,0 6.4453,7.519531 0,6.848145 -8.8623,14.636231 -8.8623,7.6538085 -22.2901,7.6538085 -15.5762,0 -22.29,-13.5620115 z" />
      <path
         id="path878"
         style="font-size:275px"
         d="m 362.19971,185.65186 q 0,-13.29346 -6.84815,-18.396 -6.84814,-5.23682 -20.1416,-5.23682 -22.69287,0 -42.16309,11.14502 -19.33593,11.01074 -19.33593,24.3042 0,8.45947 7.25097,14.50195 7.38526,5.90821 37.86621,14.77051 31.95801,9.26514 47.39991,20.41016 15.57617,11.01074 15.57617,26.58691 0,25.91553 -39.47754,47.53418 -39.47754,21.48438 -82.04346,21.48438 -13.83056,0 -22.15576,-5.77393 -8.32519,-5.77392 -8.32519,-14.2334 0,-6.71386 3.75976,-12.48779 3.75977,-5.77393 8.99658,-5.77393 3.22266,0 5.90821,1.07422 14.09912,6.04248 26.31836,6.04248 20.94726,0 46.99707,-11.68213 26.18408,-11.8164 26.18408,-23.0957 0,-4.69971 -6.57959,-8.99658 -6.44531,-4.43115 -26.45264,-11.01074 -29.13818,-9.53369 -43.90869,-15.71045 -14.63623,-6.17676 -22.29004,-16.11328 -7.51953,-10.0708 -7.51953,-24.16992 0,-25.10987 29.27246,-46.72852 29.27246,-21.61865 68.75,-21.61865 22.69287,0 35.71777,8.99658 13.15918,8.99658 13.15918,20.54443 0,23.63282 -25.91552,23.63282 z" />
      <path
         id="path880"
         style="font-size:275px"
         d="m 449.88281,337.38525 q -22.15576,0 -33.70361,-12.08496 -11.54785,-12.08496 -11.54785,-33.56933 0,-33.83789 27.52685,-73.18116 27.52686,-39.34326 53.9795,-39.34326 12.75634,0 21.75292,12.75635 8.99659,12.62207 8.99659,26.31836 0,12.89062 -4.83399,17.45605 -4.6997,4.43116 -9.13086,4.43116 -13.0249,0 -15.17334,-17.99317 -1.61132,-13.15918 -6.57959,-13.15918 -10.47363,0 -27.66113,29.80957 -17.1875,29.80957 -17.1875,52.23389 0,18.12744 19.60449,18.12744 21.61866,0 43.64014,-15.30762 10.33936,-7.38525 16.38184,-7.38525 7.38525,0 7.38525,7.38525 0,10.33936 -23.76709,26.98975 -23.63281,16.51611 -49.68262,16.51611 z" />
      <path
         id="path882"
         style="font-size:275px"
         d="m 579.86328,268.09814 q 22.29004,-41.76025 38.40332,-56.79931 16.24756,-15.17334 32.76367,-15.17334 11.41358,0 18.93311,7.92236 7.65381,7.78809 11.14502,40.82031 1.47705,15.71045 3.75976,25.37842 2.28272,9.66797 5.10254,17.1875 2.81983,7.38526 8.05664,13.96485 4.02832,5.23681 4.02832,10.0708 0,4.83398 -4.6997,8.8623 -4.56543,4.02832 -10.60791,4.02832 -11.95069,0 -21.21582,-13.0249 -9.26514,-13.0249 -11.01075,-35.98633 -2.14843,-28.06396 -4.6997,-35.85205 -2.41699,-7.78809 -8.19092,-7.78809 -7.78809,0 -30.34668,31.15235 -22.42432,31.01806 -32.36084,49.68262 -6.17676,14.09912 -9.53369,18.26171 -3.35694,4.1626 -8.3252,4.1626 -8.19091,0 -13.29345,-4.02832 -5.10254,-4.02832 -5.10254,-11.41357 0,-3.62549 3.62549,-22.69287 13.69628,-72.10694 22.42431,-153.47901 2.14844,-19.60449 8.19092,-26.98974 6.17676,-7.51954 11.2793,-7.51954 7.1167,0 12.35351,5.50538 5.23682,5.50537 5.23682,15.30761 0,15.03907 -3.62549,34.64356 -3.62549,19.60449 -13.56201,62.57324 -6.04248,25.91553 -8.72803,41.22314 z" />
      <path
         id="path884"
         style="font-size:275px"
         d="m 848.01514,261.92139 q -8.99659,31.4209 -34.24073,53.03955 -25.10986,21.48437 -50.21972,21.48437 -19.87305,0 -32.76367,-14.50195 -12.89063,-14.63623 -12.89063,-35.85205 0,-34.64356 23.63281,-68.21289 23.63282,-33.56934 57.33643,-33.56934 22.96142,0 37.19482,17.05322 14.2334,16.91895 14.2334,40.41749 0,10.20507 -2.28271,20.00732 z m -69.82422,-42.43164 q -9.39942,8.32519 -18.396,26.58691 -8.99658,18.26172 -8.99658,36.65771 0,11.14502 4.02832,18.396 4.1626,7.25098 10.87646,7.25098 16.6504,0 34.64356,-19.73877 17.99316,-19.73877 17.99316,-44.31153 0,-13.83056 -5.9082,-22.69287 -5.77393,-8.99658 -16.24756,-8.99658 -9.93652,0 -17.85888,6.84815 z m 47.53418,-55.05371 q -6.71387,0 -11.81641,-4.56543 -4.96826,-4.69971 -4.96826,-10.87647 0,-7.65381 4.02832,-10.47363 4.1626,-2.9541 13.69629,-5.23682 l 2.28271,-0.67139 q 5.63965,-1.61132 10.74219,1.87989 5.23682,3.35693 5.23682,11.68213 0,18.26172 -19.20166,18.26172 z m -48.20557,3.49121 q -5.77392,0 -12.62207,-3.35694 -6.71387,-3.35693 -6.71387,-7.38525 0,-20.00733 13.96485,-20.00733 10.60791,0 16.91894,5.50538 6.44532,5.50537 6.44532,15.57617 0,9.66797 -17.99317,9.66797 z" />
      <path
         id="path886"
         style="font-size:275px"
         d="m 989.2749,310.39551 q -6.44531,-12.08496 -9.39941,-45.11719 -2.9541,-34.375 -13.15918,-34.375 -9.66797,0 -33.43506,35.85205 -23.76709,35.71777 -29.27246,52.771 -1.2085,5.10254 -4.56543,8.45947 -3.22266,3.35693 -6.44531,3.35693 -20.41016,0 -20.41016,-18.66455 0,-6.31103 4.02832,-28.73535 5.23682,-29.00391 5.23682,-70.89844 0,-6.31103 5.50537,-13.42773 5.50537,-7.25098 11.68213,-7.25098 7.78808,0 11.95068,3.89405 4.1626,3.89404 4.1626,20.67871 0,12.75634 -7.65381,49.41406 29.13818,-68.21289 64.99023,-68.21289 31.15237,0 36.52347,49.01123 5.3711,49.95117 12.3535,49.95117 3.0884,0 7.1167,-1.34277 4.834,-1.61133 7.6538,-1.61133 6.4453,0 6.4453,7.51953 0,6.84814 -8.8623,14.63623 -8.8623,7.65381 -22.29,7.65381 -15.57621,0 -22.29008,-13.56201 z" />
      <path
         id="path888"
         style="font-size:275px"
         d="m 1071.9897,199.6167 q 13.0249,-77.20947 18.6646,-91.44287 5.7739,-14.2334 20.0073,-14.2334 11.0108,0 11.0108,19.47021 0,13.29346 -11.0108,55.18799 -5.7739,20.67871 -13.9648,62.57324 16.6504,-22.15576 36.2549,-35.85205 19.7387,-13.69628 35.1806,-13.69628 12.6221,0 20.9473,10.87646 8.4595,10.74219 8.4595,25.37842 0,41.35742 -31.8238,77.74658 -31.6894,36.38916 -67.4072,36.38916 -10.7422,0 -20.0073,-5.77393 -9.2652,-5.9082 -10.4737,-15.03906 -0.5371,-4.96826 -2.0141,-6.57959 -1.4771,-1.61133 -3.0884,-3.49121 -3.894,-4.02832 -3.894,-11.2793 0,-8.32519 4.1626,-34.64355 z m 15.8448,95.33691 q 5.6396,9.39942 12.622,9.39942 12.6221,0 27.9297,-11.54785 15.4419,-11.68213 26.7212,-32.76368 11.4136,-21.08154 11.4136,-35.04638 0,-13.29346 -4.1626,-13.29346 -21.3501,0 -47.937,31.28662 -26.5869,31.15234 -26.5869,51.96533 z" />
      <path
         id="path890"
         style="font-size:275px"
         d="m 1344.9756,261.92139 q -8.9966,31.4209 -34.2407,53.03955 -25.1099,21.48437 -50.2198,21.48437 -19.873,0 -32.7636,-14.50195 -12.8907,-14.63623 -12.8907,-35.85205 0,-34.64356 23.6329,-68.21289 23.6328,-33.56934 57.3364,-33.56934 22.9614,0 37.1948,17.05322 14.2334,16.91895 14.2334,40.41749 0,10.20507 -2.2827,20.00732 z m -69.8242,-42.43164 q -9.3994,8.32519 -18.396,26.58691 -8.9966,18.26172 -8.9966,36.65771 0,11.14502 4.0283,18.396 4.1626,7.25098 10.8765,7.25098 16.6504,0 34.6435,-19.73877 17.9932,-19.73877 17.9932,-44.31153 0,-13.83056 -5.9082,-22.69287 -5.7739,-8.99658 -16.2476,-8.99658 -9.9365,0 -17.8589,6.84815 z" />
      <path
         id="path892"
         style="font-size:275px"
         d="m 1406.8774,263.39844 2.2828,-4.29688 q 16.2475,-32.62939 34.9121,-52.90527 18.7988,-20.41016 36.6577,-20.41016 13.6963,0 22.29,7.51953 8.728,7.51954 8.728,17.85889 0,6.44531 -2.9541,11.14502 -2.9541,4.56543 -8.1909,4.56543 -8.3252,0 -15.1733,-6.84814 -4.834,-4.43116 -7.6538,-4.43116 -10.0708,0 -33.7036,31.28662 -23.6328,31.28663 -28.4668,70.36133 -1.4771,11.2793 -6.5796,15.71045 -5.1026,4.56543 -13.8306,4.56543 -9.2651,0 -13.1592,-10.47363 -3.894,-10.60791 -3.894,-34.50928 0,-9.80225 0.5371,-26.45264 0.5371,-15.71044 3.0884,-38.40332 0.6714,-5.9082 0.9399,-9.26513 1.2085,-13.15918 2.6856,-17.99317 1.6113,-4.96826 7.2509,-9.26513 5.6397,-4.29688 12.4878,-4.29688 7.251,0 11.0108,4.1626 3.7597,4.1626 3.7597,9.13086 0,6.31103 -6.0424,26.18408 -2.1485,6.84815 -3.6255,16.38184 z" />
      <path
         id="path894"
         style="font-size:275px"
         d="m 1631.1206,310.39551 q -6.4453,-12.08496 -9.3994,-45.11719 -2.9541,-34.375 -13.1592,-34.375 -9.668,0 -33.435,35.85205 -23.7671,35.71777 -29.2725,52.771 -1.2085,5.10254 -4.5654,8.45947 -3.2227,3.35693 -6.4453,3.35693 -20.4102,0 -20.4102,-18.66455 0,-6.31103 4.0283,-28.73535 5.2368,-29.00391 5.2368,-70.89844 0,-6.31103 5.5054,-13.42773 5.5054,-7.25098 11.6821,-7.25098 7.7881,0 11.9507,3.89405 4.1626,3.89404 4.1626,20.67871 0,12.75634 -7.6538,49.41406 29.1382,-68.21289 64.9902,-68.21289 31.1524,0 36.5235,49.01123 5.3711,49.95117 12.3535,49.95117 3.0884,0 7.1167,-1.34277 4.834,-1.61133 7.6538,-1.61133 6.4453,0 6.4453,7.51953 0,6.84814 -8.8623,14.63623 -8.8623,7.65381 -22.29,7.65381 -15.5762,0 -22.2901,-13.56201 z" />
    </g>
    <path
       d="M 2072.5,426.5 V 868.232"
       stroke="#17406d"
       stroke-width="36.6667"
       stroke-linecap="round"
       stroke-linejoin="round"
       stroke-miterlimit="10"
       fill="none"
       fill-rule="evenodd"
       id="path11" />
    <path
       d="M 0,0 181.89,3.60892e-4"
       stroke="#17406d"
       stroke-width="27.5"
       stroke-linecap="round"
       stroke-linejoin="round"
       stroke-miterlimit="10"
       fill="none"
       fill-rule="evenodd"
       transform="matrix(1,0,0,-1,1981,420)"
       id="path13" />
    <path
       d="m 2166,364 v 54.112"
       stroke="#17406d"
       stroke-width="27.5"
       stroke-linecap="round"
       stroke-linejoin="round"
       stroke-miterlimit="10"
       fill="none"
       fill-rule="evenodd"
       id="path15" />
    <path
       d="m 1982,364 v 54.316"
       stroke="#17406d"
       stroke-width="27.5"
       stroke-linecap="round"
       stroke-linejoin="round"
       stroke-miterlimit="10"
       fill="none"
       fill-rule="evenodd"
       id="path17" />
    <path
       d="M 0,0 81.1687,3.60892e-4"
       stroke="#17406d"
       stroke-width="27.5"
       stroke-linecap="round"
       stroke-linejoin="round"
       stroke-miterlimit="10"
       fill="none"
       fill-rule="evenodd"
       transform="matrix(1,0,0,-1,1987,665)"
       id="path19" />
    <path
       d="m 1983,639 v 25.984"
       stroke="#17406d"
       stroke-width="27.5"
       stroke-linecap="round"
       stroke-linejoin="round"
       stroke-miterlimit="10"
       fill="none"
       fill-rule="evenodd"
       id="path21" />
    <path
       d="M 0,0 81.1687,3.60892e-4"
       stroke="#17406d"
       stroke-width="27.5"
       stroke-linecap="round"
       stroke-linejoin="round"
       stroke-miterlimit="10"
       fill="none"
       fill-rule="evenodd"
       transform="matrix(-1,0,0,1,2153.17,722)"
       id="path23" />
    <path
       d="m 2157,695 v 27.057"
       stroke="#17406d"
       stroke-width="27.5"
       stroke-linecap="round"
       stroke-linejoin="round"
       stroke-miterlimit="10"
       fill="none"
       fill-rule="evenodd"
       id="path25" />
    <path
       d="m 2157,593.5 v 0 c 17.95,0 32.5,14.551 32.5,32.5 v 65.5 h -65 V 626 c 0,-17.949 14.55,-32.5 32.5,-32.5 z"
       stroke="#2161a6"
       stroke-width="36.6667"
       stroke-linecap="round"
       stroke-linejoin="round"
       stroke-miterlimit="10"
       fill="#2161a6"
       fill-rule="evenodd"
       id="path27" />
    <path
       d="m 2156.5,822.5 h 384.2"
       stroke="#112f4f"
       stroke-width="68.75"
       stroke-linecap="round"
       stroke-linejoin="round"
       stroke-miterlimit="10"
       fill="none"
       fill-rule="evenodd"
       id="path29" />
    <path
       d="m 1873.5,821.5 h 113.64"
       stroke="#112f4f"
       stroke-width="68.75"
       stroke-linecap="round"
       stroke-linejoin="round"
       stroke-miterlimit="10"
       fill="none"
       fill-rule="evenodd"
       id="path31" />
    <path
       d="m 1871.76,821.496 c -101.62,0.694 -184.56,-81.121 -185.26,-182.739 -0.63,-92.975 68.19,-171.814 160.4,-183.738"
       stroke="#17406d"
       stroke-width="68.75"
       stroke-linecap="round"
       stroke-linejoin="round"
       stroke-miterlimit="10"
       fill="none"
       fill-rule="evenodd"
       id="path33" />
    <path
       d="m 1848.45,454.197 c -17.23,-137.27 80.08,-262.517 217.35,-279.747 136,-17.069 260.46,78.324 279.32,214.079"
       stroke="#2161a6"
       stroke-width="68.75"
       stroke-linecap="round"
       stroke-linejoin="round"
       stroke-miterlimit="10"
       fill="none"
       fill-rule="evenodd"
       id="path35" />
    <path
       d="m 2223.26,454.24 c 60.07,-76.07 170.43,-89.044 246.5,-28.977 48.88,38.598 73.64,100.213 65.07,161.904"
       stroke="#448ad7"
       stroke-width="68.75"
       stroke-linecap="round"
       stroke-linejoin="round"
       stroke-miterlimit="10"
       fill="none"
       fill-rule="evenodd"
       id="path37" />
    <path
       d="m 2535.16,588.502 c 64.62,0.366 116.7,53.045 116.34,117.661 -0.36,63.139 -50.75,114.605 -113.87,116.295"
       stroke="#71a6e1"
       stroke-width="68.75"
       stroke-linecap="round"
       stroke-linejoin="round"
       stroke-miterlimit="10"
       fill="none"
       fill-rule="evenodd"
       id="path39" />
    <rect
       x="1950.5"
       y="557.5"
       width="65"
       height="78.000099"
       stroke="#2161a6"
       stroke-width="36.6667"
       stroke-linecap="round"
       stroke-linejoin="round"
       stroke-miterlimit="10"
       fill="#2161a6"
       id="rect41" />
    <path
       d="M 2.82922e-5,-9.16667 80.2625,-9.16642 c 5.0626,2e-5 9.1667,4.10409 9.1666,9.166696016 C 89.4291,5.06289 85.3251,9.16693 80.2624,9.16691 L -2.82922e-5,9.16667 C -5.06264,9.16665 -9.16668,5.06258 -9.16667,-2.82922e-5 -9.16665,-5.06264 -5.06258,-9.16668 2.82922e-5,-9.16667 Z M -8.48765e-5,27.5 C -15.1879,27.5 -27.5,15.1877 -27.5,-8.48765e-5 -27.5,-15.1879 -15.1877,-27.5 8.48765e-5,-27.5 15.1879,-27.5 27.5,-15.1877 27.5,8.48765e-5 27.5,15.1879 15.1877,27.5 -8.48765e-5,27.5 Z M 80.2625,2.47724e-4 61.9292,-27.4998 116.929,3.60892e-4 61.9291,27.5002 Z"
       fill="#2161a6"
       transform="matrix(1,0,0,-1,1937,350)"
       id="path43" />
    <path
       d="m 2114,342.833 103.94,10e-4 c 5.06,0 9.16,4.104 9.16,9.166 0,5.063 -4.1,9.167 -9.16,9.167 H 2114 c -5.06,0 -9.17,-4.104 -9.17,-9.167 0,-5.063 4.11,-9.167 9.17,-9.167 z m 0,36.667 c -15.19,0 -27.5,-12.312 -27.5,-27.5 0,-15.188 12.31,-27.5 27.5,-27.5 15.19,0 27.5,12.312 27.5,27.5 0,15.188 -12.31,27.5 -27.5,27.5 z m 103.94,-55 c 15.18,0 27.5,12.313 27.5,27.5 0,15.188 -12.32,27.5 -27.5,27.5 -15.19,0 -27.5,-12.312 -27.5,-27.5 0,-15.188 12.31,-27.5 27.5,-27.5 z"
       fill="#2161a6"
       id="path45" />
  </g>
</svg>
