<svg width="8565" height="4899" xmlns="http://www.w3.org/2000/svg" xmlns:xlink="http://www.w3.org/1999/xlink" overflow="hidden"><defs><clipPath id="clip0"><rect x="499" y="157" width="8565" height="4899"/></clipPath></defs><g clip-path="url(#clip0)" transform="translate(-499 -157)"><path d="M6129.99 5054.5C7086.5 4235.84 5865.77 2826.12 5243.71 2218.07 4671.8 1660.98 3946.06 1229.57 3146.73 1158.23 2347.41 1083.5 1410.96 1518.31 936.047 2163.72 270.5 3074.1 885.88 4361.53 1604.94 5040.91" stroke="#FFFFFF" stroke-width="3.4375" stroke-miterlimit="8" stroke-opacity="0.501961" fill="none" fill-rule="evenodd"/><path d="M4400.2 5047.1C5062.33 4894.23 6152.5 4506.94 5798.03 3606.67 5466.96 2764.15 4453.7 1972.59 3587.58 1775.55 2795.03 1595.5 1892.13 1992.98 1474.11 2713.19 972.5 3579.49 1785.11 4690.39 2567.63 5050.5" stroke="#FFFFFF" stroke-width="3.4375" stroke-miterlimit="8" stroke-opacity="0.501961" fill="none" fill-rule="evenodd"/><path d="M5032.64 5054.5C5413.88 4911.79 5865.35 4701.13 6072.69 4320.59 6323.5 3861.89 6049.28 3386.21 5751.64 3032.84 5146.34 2309.12 4303.61 1643.16 3347.17 1527.64 2547.9 1432.5 1738.61 1901.39 1283.8 2563.95 678.5 3443.97 1317.24 4514.26 2083.06 5054.5" stroke="#FFFFFF" stroke-width="3.4375" stroke-miterlimit="8" stroke-dasharray="13.75 10.3125" stroke-opacity="0.501961" fill="none" fill-rule="evenodd"/><path d="M6763.96 5054.5C7760.5 4099.82 6603.45 2852.96 5881.13 2156.49 5202.28 1504.18 4376.29 943.603 3443.29 763.539 2323.02 549.5 1216.13 1096.49 500.5 1986.62" stroke="#FFFFFF" stroke-width="3.4375" stroke-miterlimit="8" stroke-opacity="0.501961" fill="none" fill-rule="evenodd"/><path d="M504 4565C620.887 4748.52 737.774 4908.26 858 5051" stroke="#FFFFFF" stroke-width="1.71893" stroke-miterlimit="8" stroke-opacity="0.501961" fill="none" fill-rule="evenodd"/><path d="M7342.75 5054.5C8292.5 4038.48 7352.78 2910.32 6563.55 2162.74 5747.56 1394.78 4787.77 728.755 3697.56 450.113 2413.39 120.5 1477.01 463.705 500.5 1364.19" stroke="#FFFFFF" stroke-width="3.4375" stroke-miterlimit="8" stroke-opacity="0.501961" fill="none" fill-rule="evenodd"/><path d="M7971.56 5040.5C8379.5 3946.46 7336.25 2777.68 6684.22 2033.6 6015.47 1272.53 5229.69 592.999 4313.5 161.5" stroke="#FFFFFF" stroke-width="3.4375" stroke-miterlimit="8" stroke-opacity="0.501961" fill="none" fill-rule="evenodd"/><path d="M1243.5 161.5C1009.22 280.337 754.86 426.337 500.5 599.5" stroke="#FFFFFF" stroke-width="3.4375" stroke-miterlimit="8" stroke-opacity="0.501961" fill="none" fill-rule="evenodd"/><path d="M8158.77 5054.5C8516.5 3980.76 7556.98 2869.64 6925.1 2122.1 6263.14 1343.98 5494.18 640.606 4591.5 161.5" stroke="#FFFFFF" stroke-width="3.4375" stroke-miterlimit="8" stroke-dasharray="13.75 10.3125" stroke-opacity="0.501961" fill="none" fill-rule="evenodd"/><path d="M922.5 158.5C788.74 233.122 648.292 317.919 504.5 409.5" stroke="#FFFFFF" stroke-width="3.4375" stroke-miterlimit="8" stroke-dasharray="13.75 10.3125" stroke-opacity="0.501961" fill="none" fill-rule="evenodd"/><path d="M8256.47 5054.5C8587.5 3977.36 7651.26 2883.23 7019.29 2132.29 6367.27 1357.57 5608.24 654.198 4725.5 161.5" stroke="#FFFFFF" stroke-width="4.58333" stroke-miterlimit="8" stroke-dasharray="18.3333 13.75 4.58333 13.75" stroke-opacity="0.501961" fill="none" fill-rule="evenodd"/><path d="M751.5 161.5C667.833 209.1 584.167 260.1 500.5 314.5" stroke="#FFFFFF" stroke-width="4.58333" stroke-miterlimit="8" stroke-dasharray="18.3333 13.75 4.58333 13.75" stroke-opacity="0.501961" fill="none" fill-rule="evenodd"/><path d="M8386.6 5054.5C8744.5 3994.44 7848.09 2934.37 7222.6 2193.69 6546.95 1398.64 5767.6 674.941 4864.5 158.5" stroke="#FFFFFF" stroke-width="3.4375" stroke-miterlimit="8" stroke-opacity="0.501961" fill="none" fill-rule="evenodd"/><path d="M8520.14 5054.5C8844.5 4004.54 7995.15 2974.98 7376.53 2237.63 6707.76 1435.72 5938.66 701.769 5042.5 161.5" stroke="#FFFFFF" stroke-width="3.4375" stroke-miterlimit="8" stroke-opacity="0.501961" fill="none" fill-rule="evenodd"/><path d="M8714.33 5050.5C8871.5 4004.07 8092.34 3018.8 7500.44 2257.76 6878.45 1462.74 6162.82 732.28 5333.5 161.5" stroke="#FFFFFF" stroke-width="3.4375" stroke-miterlimit="8" stroke-opacity="0.501961" fill="none" fill-rule="evenodd"/><path d="M9062.5 2115.5C8333.51 1384.87 7530.94 715.417 6661.5 161.5" stroke="#FFFFFF" stroke-width="3.4375" stroke-miterlimit="8" stroke-opacity="0.501961" fill="none" fill-rule="evenodd"/><path d="M9062.5 1985.5C8340.29 1231.69 7644.84 634.082 6989.5 165.5" stroke="#FFFFFF" stroke-width="3.4375" stroke-miterlimit="8" stroke-opacity="0.501961" fill="none" fill-rule="evenodd"/><path d="M7541.5 161.5C8052.96 450.202 8571.1 772.869 9062.5 1129.5" stroke="#FFFFFF" stroke-width="3.4375" stroke-miterlimit="8" stroke-dasharray="13.75 10.3125" stroke-opacity="0.501961" fill="none" fill-rule="evenodd"/><path d="M8433.5 161.5C8644.28 283.964 8855.06 409.83 9062.5 542.5" stroke="#FFFFFF" stroke-width="3.4375" stroke-miterlimit="8" stroke-opacity="0.501961" fill="none" fill-rule="evenodd"/></g></svg>